# OBJ written from C:\Users\c.thomas\Documents\xwing\FC\xwingnumbermarker.obj
# Units	meters

o Mesh
v 0.00859 -0.001095 0.00903
v -0.00859 -0.001095 0.00903
v 0.00859 0.001095 0.00903
v -0.00859 0.001095 0.00903
v -0.000240279 -0.001095 -0.00813
v -0.0046386 -0.001095 0.00903
v 0.000240279 -0.001095 -0.00813
v 0.0046386 -0.001095 0.00903
v -0.000240279 0.001095 -0.00813
v 0.000240279 0.001095 -0.00813
v -0.0046386 0.001095 0.00903
v 0.0046386 0.001095 0.00903
v -0.0046286 -0.001085 0.01054
v 0.0046286 -0.001085 0.01054
v -0.0046286 0.001085 0.01054
v 0.0046286 0.001085 0.01054
v -0.00038 -0.001095 -0.00813
v -0.00859 -0.001095 8.00005e-005
v 0.00859 -0.001095 8.00005e-005
v 0.00038 -0.001095 -0.00813
v -0.00859 0.001095 8.00005e-005
v -0.00038 0.001095 -0.00813
v 0.00038 0.001095 -0.00813
v 0.00859 0.001095 8.00005e-005
v 0.00856469 -0.001095 -0.000564149
v 0.00856469 0.001095 -0.000564149
v 0.00848892 -0.001095 -0.00120433
v 0.00848892 0.001095 -0.00120433
v 0.00836316 -0.001095 -0.00183659
v 0.00836316 0.001095 -0.00183659
v 0.00818817 -0.001095 -0.00245703
v 0.00818817 0.001095 -0.00245703
v 0.00796505 -0.001095 -0.00306183
v 0.00796505 0.001095 -0.00306183
v 0.00769516 -0.001095 -0.00364726
v 0.00769516 0.001095 -0.00364726
v 0.00738018 -0.001095 -0.00420971
v 0.00738018 0.001095 -0.00420971
v 0.00702203 -0.001095 -0.00474572
v 0.00702203 0.001095 -0.00474572
v 0.00662293 -0.001095 -0.00525197
v 0.00662293 0.001095 -0.00525197
v 0.00618535 -0.001095 -0.00572535
v 0.00618535 0.001095 -0.00572535
v 0.00571197 -0.001095 -0.00616293
v 0.00571197 0.001095 -0.00616293
v 0.00520572 -0.001095 -0.00656203
v 0.00520572 0.001095 -0.00656203
v 0.00466971 -0.001095 -0.00692018
v 0.00466971 0.001095 -0.00692018
v 0.00410726 -0.001095 -0.00723516
v 0.00410726 0.001095 -0.00723516
v 0.00352183 -0.001095 -0.00750505
v 0.00352183 0.001095 -0.00750505
v 0.00291703 -0.001095 -0.00772817
v 0.00291703 0.001095 -0.00772817
v 0.00229659 -0.001095 -0.00790316
v 0.00229659 0.001095 -0.00790316
v 0.00166433 -0.001095 -0.00802892
v 0.00166433 0.001095 -0.00802892
v 0.00102415 -0.001095 -0.00810469
v 0.00102415 0.001095 -0.00810469
v -0.00102415 -0.001095 -0.00810469
v -0.00102415 0.001095 -0.00810469
v -0.00166433 -0.001095 -0.00802892
v -0.00166433 0.001095 -0.00802892
v -0.00229659 -0.001095 -0.00790316
v -0.00229659 0.001095 -0.00790316
v -0.00291703 -0.001095 -0.00772817
v -0.00291703 0.001095 -0.00772817
v -0.00352183 -0.001095 -0.00750505
v -0.00352183 0.001095 -0.00750505
v -0.00410726 -0.001095 -0.00723516
v -0.00410726 0.001095 -0.00723516
v -0.00466971 -0.001095 -0.00692018
v -0.00466971 0.001095 -0.00692018
v -0.00520572 -0.001095 -0.00656203
v -0.00520572 0.001095 -0.00656203
v -0.00571197 -0.001095 -0.00616293
v -0.00571197 0.001095 -0.00616293
v -0.00618535 -0.001095 -0.00572535
v -0.00618535 0.001095 -0.00572535
v -0.00662293 -0.001095 -0.00525197
v -0.00662293 0.001095 -0.00525197
v -0.00702203 -0.001095 -0.00474572
v -0.00702203 0.001095 -0.00474572
v -0.00738018 -0.001095 -0.00420971
v -0.00738018 0.001095 -0.00420971
v -0.00769516 -0.001095 -0.00364726
v -0.00769516 0.001095 -0.00364726
v -0.00796505 -0.001095 -0.00306183
v -0.00796505 0.001095 -0.00306183
v -0.00818817 -0.001095 -0.00245703
v -0.00818817 0.001095 -0.00245703
v -0.00836316 -0.001095 -0.00183659
v -0.00836316 0.001095 -0.00183659
v -0.00848892 -0.001095 -0.00120433
v -0.00848892 0.001095 -0.00120433
v -0.00856469 -0.001095 -0.000564149
v -0.00856469 0.001095 -0.000564149
vn 0.0196337 0 -0.999807
vn 0 0 -1
vn 0 -1 0
vn 0 -0.999999 0.00165559
vn -0.0196337 0 -0.999807
vn 0 0 1
vn -0.999807 0 -0.0196337
vn -1 0 0
vn 0 0.999999 0.00165559
vn 0 1 0
vn 1 0 0
vn 0.999807 0 -0.0196337
vn 0 -0.999978 0.00662234
vn 0.999978 0 0.00662241
vn 0 0.999978 0.00662234
vn -0.999978 0 0.00662241
vn 0.996917 0 -0.0784588
vn 0.987688 0 -0.156435
vn 0.97237 0 -0.233445
vn 0.951057 0 -0.309017
vn 0.923879 0 -0.382684
vn 0.891006 0 -0.453991
vn 0.85264 0 -0.522498
vn 0.809017 0 -0.587785
vn 0.760406 0 -0.649448
vn 0.707107 0 -0.707107
vn 0.649448 0 -0.760406
vn 0.587785 0 -0.809017
vn 0.522498 0 -0.85264
vn 0.453991 0 -0.891006
vn 0.382684 0 -0.923879
vn 0.309017 0 -0.951057
vn 0.233445 0 -0.97237
vn 0.156435 0 -0.987688
vn 0.0784588 0 -0.996917
vn -0.0784588 0 -0.996917
vn -0.156435 0 -0.987688
vn -0.233445 0 -0.97237
vn -0.309017 0 -0.951057
vn -0.382684 0 -0.923879
vn -0.453991 0 -0.891006
vn -0.522498 0 -0.85264
vn -0.587785 0 -0.809017
vn -0.649448 0 -0.760406
vn -0.707107 0 -0.707107
vn -0.760406 0 -0.649448
vn -0.809017 0 -0.587785
vn -0.85264 0 -0.522498
vn -0.891006 0 -0.453991
vn -0.923879 0 -0.382684
vn -0.951057 0 -0.309017
vn -0.97237 0 -0.233445
vn -0.987688 0 -0.156435
vn -0.996917 0 -0.0784588
vt 0.802797 0.969125
vt 0.802797 0.900875
vt 0.803547 0.900875
vt 0.803547 0.969125
vt 0.757538 0.709975
vt 0.744462 0.709975
vt 0.624775 0.25046
vt 0.877225 0.25046
vt 0.908847 0.969125
vt 0.908847 0.900875
vt 0.909598 0.900875
vt 0.909598 0.969125
vt 0.368697 0.900875
vt 0.413547 0.900875
vt 0.413547 0.969125
vt 0.368697 0.969125
vt 0.413866 0.900959
vt 0.518529 0.900959
vt 0.518529 0.969041
vt 0.413866 0.969041
vt 0.518847 0.900875
vt 0.563697 0.900875
vt 0.563697 0.969125
vt 0.518847 0.969125
vt 0.266993 0.969125
vt 0.266993 0.900875
vt 0.38502 0.250754
vt 0.13098 0.250754
vt 0.25142 0.711817
vt 0.26458 0.711817
vt 0.665402 0.900875
vt 0.665402 0.969125
vt 0.625047 0.210025
vt 0.876953 0.210025
vt 0.384746 0.210183
vt 0.131254 0.210183
vt 0.672272 0.900875
vt 0.672272 0.969125
vt 0.679141 0.900875
vt 0.679141 0.969125
vt 0.686011 0.900875
vt 0.686011 0.969125
vt 0.692881 0.900875
vt 0.692881 0.969125
vt 0.699751 0.900875
vt 0.699751 0.969125
vt 0.70662 0.900875
vt 0.70662 0.969125
vt 0.71349 0.900875
vt 0.71349 0.969125
vt 0.72036 0.900875
vt 0.72036 0.969125
vt 0.72723 0.900875
vt 0.72723 0.969125
vt 0.7341 0.900875
vt 0.7341 0.969125
vt 0.740969 0.900875
vt 0.740969 0.969125
vt 0.747839 0.900875
vt 0.747839 0.969125
vt 0.754709 0.900875
vt 0.754709 0.969125
vt 0.761578 0.900875
vt 0.761578 0.969125
vt 0.768448 0.900875
vt 0.768448 0.969125
vt 0.775318 0.900875
vt 0.775318 0.969125
vt 0.782188 0.900875
vt 0.782188 0.969125
vt 0.789057 0.900875
vt 0.789057 0.969125
vt 0.795927 0.900875
vt 0.795927 0.969125
vt 0.080402 0.969125
vt 0.080402 0.900875
vt 0.0897316 0.900875
vt 0.0897316 0.969125
vt 0.0990611 0.900875
vt 0.0990611 0.969125
vt 0.108391 0.900875
vt 0.108391 0.969125
vt 0.11772 0.900875
vt 0.11772 0.969125
vt 0.12705 0.900875
vt 0.12705 0.969125
vt 0.136379 0.900875
vt 0.136379 0.969125
vt 0.145709 0.900875
vt 0.145709 0.969125
vt 0.155038 0.900875
vt 0.155038 0.969125
vt 0.164368 0.900875
vt 0.164368 0.969125
vt 0.173697 0.900875
vt 0.173697 0.969125
vt 0.183027 0.900875
vt 0.183027 0.969125
vt 0.192357 0.900875
vt 0.192357 0.969125
vt 0.201686 0.900875
vt 0.201686 0.969125
vt 0.211016 0.900875
vt 0.211016 0.969125
vt 0.220345 0.900875
vt 0.220345 0.969125
vt 0.229675 0.900875
vt 0.229675 0.969125
vt 0.239004 0.900875
vt 0.239004 0.969125
vt 0.248334 0.900875
vt 0.248334 0.969125
vt 0.257663 0.900875
vt 0.257663 0.969125
vt 0.0227775 0.491227
vt 0.0234705 0.508534
vt 0.0227775 0.250754
vt 0.0255453 0.525735
vt 0.0289892 0.542723
vt 0.247594 0.711817
vt 0.0337808 0.559393
vt 0.229955 0.711137
vt 0.0398906 0.575643
vt 0.212425 0.709102
vt 0.0472811 0.591373
vt 0.195112 0.705723
vt 0.0559065 0.606485
vt 0.178122 0.701021
vt 0.0657137 0.620887
vt 0.161561 0.695026
vt 0.0766423 0.634489
vt 0.14553 0.687774
vt 0.0886248 0.647208
vt 0.130128 0.679311
vt 0.101587 0.658965
vt 0.11545 0.669688
vt 0.414412 0.658965
vt 0.427375 0.647208
vt 0.385872 0.679311
vt 0.40055 0.669688
vt 0.439358 0.634489
vt 0.37047 0.687774
vt 0.450286 0.620887
vt 0.354439 0.695026
vt 0.460093 0.606485
vt 0.337878 0.701021
vt 0.468719 0.591373
vt 0.320888 0.705723
vt 0.476109 0.575643
vt 0.303575 0.709102
vt 0.482219 0.559393
vt 0.286045 0.711137
vt 0.487011 0.542723
vt 0.268406 0.711817
vt 0.490455 0.525735
vt 0.492529 0.508534
vt 0.493223 0.491227
vt 0.493223 0.250754
vt 0.595567 0.6573
vt 0.582685 0.645583
vt 0.623928 0.677578
vt 0.609343 0.667987
vt 0.570778 0.632906
vt 0.639234 0.686013
vt 0.559917 0.61935
vt 0.655164 0.69324
vt 0.550172 0.604997
vt 0.671622 0.699215
vt 0.5416 0.589935
vt 0.688506 0.703901
vt 0.534256 0.574258
vt 0.705711 0.707268
vt 0.528184 0.558063
vt 0.723131 0.709297
vt 0.523423 0.541448
vt 0.740659 0.709975
vt 0.520001 0.524518
vt 0.517939 0.507375
vt 0.51725 0.490126
vt 0.51725 0.25046
vt 0.98475 0.490126
vt 0.984061 0.507375
vt 0.98475 0.25046
vt 0.981999 0.524518
vt 0.978577 0.541448
vt 0.76134 0.709975
vt 0.973816 0.558063
vt 0.778869 0.709297
vt 0.967744 0.574258
vt 0.796289 0.707268
vt 0.9604 0.589935
vt 0.813494 0.703901
vt 0.951828 0.604997
vt 0.830378 0.699215
vt 0.942083 0.61935
vt 0.846836 0.69324
vt 0.931222 0.632906
vt 0.862766 0.686013
vt 0.919315 0.645583
vt 0.878072 0.677578
vt 0.906433 0.6573
vt 0.892657 0.667987
mtllib xwingnumbermarker.mtl
usemtl nmtex1
g Default
f 23/1/1 20/2/1 7/3/2 10/4/2
f 5/5/3 7/6/3 8/7/4 6/8/4
f 9/9/2 5/10/2 17/11/5 22/12/5
f 9/9/2 10/4/2 7/3/2 5/10/2
f 2/13/6 6/14/6 11/15/6 4/16/6
f 13/17/6 14/18/6 16/19/6 15/20/6
f 8/21/6 1/22/6 3/23/6 12/24/6
f 21/25/7 18/26/7 2/13/8 4/16/8
f 11/27/9 12/28/9 10/29/10 9/30/10
f 3/23/11 1/22/11 19/31/12 24/32/12
f 6/8/4 8/7/4 14/33/13 13/34/13
f 8/21/14 12/24/14 16/19/14 14/18/14
f 12/28/9 11/27/9 15/35/15 16/36/15
f 11/15/16 6/14/16 13/17/16 15/20/16
f 24/32/12 19/31/12 25/37/17 26/38/17
f 26/38/17 25/37/17 27/39/18 28/40/18
f 28/40/18 27/39/18 29/41/19 30/42/19
f 30/42/19 29/41/19 31/43/20 32/44/20
f 32/44/20 31/43/20 33/45/21 34/46/21
f 34/46/21 33/45/21 35/47/22 36/48/22
f 36/48/22 35/47/22 37/49/23 38/50/23
f 38/50/23 37/49/23 39/51/24 40/52/24
f 40/52/24 39/51/24 41/53/25 42/54/25
f 42/54/25 41/53/25 43/55/26 44/56/26
f 44/56/26 43/55/26 45/57/27 46/58/27
f 46/58/27 45/57/27 47/59/28 48/60/28
f 48/60/28 47/59/28 49/61/29 50/62/29
f 50/62/29 49/61/29 51/63/30 52/64/30
f 52/64/30 51/63/30 53/65/31 54/66/31
f 54/66/31 53/65/31 55/67/32 56/68/32
f 56/68/32 55/67/32 57/69/33 58/70/33
f 58/70/33 57/69/33 59/71/34 60/72/34
f 60/72/34 59/71/34 61/73/35 62/74/35
f 62/74/35 61/73/35 20/2/1 23/1/1
f 22/75/5 17/76/5 63/77/36 64/78/36
f 64/78/36 63/77/36 65/79/37 66/80/37
f 66/80/37 65/79/37 67/81/38 68/82/38
f 68/82/38 67/81/38 69/83/39 70/84/39
f 70/84/39 69/83/39 71/85/40 72/86/40
f 72/86/40 71/85/40 73/87/41 74/88/41
f 74/88/41 73/87/41 75/89/42 76/90/42
f 76/90/42 75/89/42 77/91/43 78/92/43
f 78/92/43 77/91/43 79/93/44 80/94/44
f 80/94/44 79/93/44 81/95/45 82/96/45
f 82/96/45 81/95/45 83/97/46 84/98/46
f 84/98/46 83/97/46 85/99/47 86/100/47
f 86/100/47 85/99/47 87/101/48 88/102/48
f 88/102/48 87/101/48 89/103/49 90/104/49
f 90/104/49 89/103/49 91/105/50 92/106/50
f 92/106/50 91/105/50 93/107/51 94/108/51
f 94/108/51 93/107/51 95/109/52 96/110/52
f 96/110/52 95/109/52 97/111/53 98/112/53
f 98/112/53 97/111/53 99/113/54 100/114/54
f 100/114/54 99/113/54 18/26/7 21/25/7
f 24/115/10 26/116/10 12/28/9 3/117/10
f 26/116/10 28/118/10 10/29/10 12/28/9
f 28/118/10 30/119/10 23/120/10 10/29/10
f 30/119/10 32/121/10 62/122/10 23/120/10
f 32/121/10 34/123/10 60/124/10 62/122/10
f 34/123/10 36/125/10 58/126/10 60/124/10
f 36/125/10 38/127/10 56/128/10 58/126/10
f 38/127/10 40/129/10 54/130/10 56/128/10
f 40/129/10 42/131/10 52/132/10 54/130/10
f 42/131/10 44/133/10 50/134/10 52/132/10
f 44/133/10 46/135/10 48/136/10 50/134/10
f 80/137/10 82/138/10 76/139/10 78/140/10
f 82/138/10 84/141/10 74/142/10 76/139/10
f 84/141/10 86/143/10 72/144/10 74/142/10
f 86/143/10 88/145/10 70/146/10 72/144/10
f 88/145/10 90/147/10 68/148/10 70/146/10
f 90/147/10 92/149/10 66/150/10 68/148/10
f 92/149/10 94/151/10 64/152/10 66/150/10
f 94/151/10 96/153/10 22/154/10 64/152/10
f 96/153/10 98/155/10 9/30/10 22/154/10
f 98/155/10 100/156/10 11/27/9 9/30/10
f 100/156/10 21/157/10 4/158/10 11/27/9
f 45/159/3 43/160/3 49/161/3 47/162/3
f 43/160/3 41/163/3 51/164/3 49/161/3
f 41/163/3 39/165/3 53/166/3 51/164/3
f 39/165/3 37/167/3 55/168/3 53/166/3
f 37/167/3 35/169/3 57/170/3 55/168/3
f 35/169/3 33/171/3 59/172/3 57/170/3
f 33/171/3 31/173/3 61/174/3 59/172/3
f 31/173/3 29/175/3 20/176/3 61/174/3
f 29/175/3 27/177/3 7/6/3 20/176/3
f 27/177/3 25/178/3 8/7/4 7/6/3
f 25/178/3 19/179/3 1/180/3 8/7/4
f 18/181/3 99/182/3 6/8/4 2/183/3
f 99/182/3 97/184/3 5/5/3 6/8/4
f 97/184/3 95/185/3 17/186/3 5/5/3
f 95/185/3 93/187/3 63/188/3 17/186/3
f 93/187/3 91/189/3 65/190/3 63/188/3
f 91/189/3 89/191/3 67/192/3 65/190/3
f 89/191/3 87/193/3 69/194/3 67/192/3
f 87/193/3 85/195/3 71/196/3 69/194/3
f 85/195/3 83/197/3 73/198/3 71/196/3
f 83/197/3 81/199/3 75/200/3 73/198/3
f 81/199/3 79/201/3 77/202/3 75/200/3

o Mesh (2)
mtllib xwingnumbermarker.mtl
