# Blender v2.78 (sub 0) OBJ File: ''
# www.blender.org
mtllib Bombinea2.mtl
o STL_object_STL_object_auv
v -1.500000 -0.000000 1.100000
v -1.500000 0.200000 -1.100000
v -1.500000 0.000000 -1.100000
v -1.500000 0.200000 1.100000
v -1.500000 -0.000000 1.460000
v -1.488159 0.200000 1.489319
v -1.500000 0.200000 1.460000
v -1.500000 0.200000 -1.460000
v -1.488159 0.000000 -1.489319
v -1.500000 0.000000 -1.460000
v -1.488159 0.200000 -1.489319
v -1.488159 -0.000000 1.489319
v -1.471846 0.200000 1.516405
v -1.471846 0.000000 -1.516405
v -1.471846 0.200000 -1.516405
v -1.471846 -0.000000 1.516405
v -1.451468 0.200000 1.540582
v -1.451468 0.000000 -1.540582
v -1.451468 0.200000 -1.540582
v -1.451468 -0.000000 1.540582
v -1.427534 0.200000 1.561245
v -1.427534 0.000000 -1.561245
v -1.427534 0.200000 -1.561245
v -1.427534 -0.000000 1.561245
v -1.400642 0.200000 1.577878
v -1.400642 0.000000 -1.577878
v -1.400642 0.200000 -1.577878
v -1.400642 -0.000000 1.577878
v -1.371466 0.200000 1.590065
v -1.371466 0.000000 -1.590065
v -1.371466 0.200000 -1.590065
v -1.371466 -0.000000 1.590065
v -1.340733 0.200000 1.597501
v -1.340733 0.000000 -1.597501
v -1.340733 0.200000 -1.597501
v -1.340733 -0.000000 1.597501
v -1.309212 0.200000 1.600000
v -1.309212 0.000000 -1.600000
v -1.309212 0.200000 -1.600000
v 1.300000 0.200000 -1.600000
v 1.300000 0.000000 -1.600000
v -1.309212 -0.000000 1.600000
v 1.300000 -0.000000 1.600000
v 1.331287 0.200000 -1.597538
v 1.331287 0.000000 -1.597538
v 1.300000 0.200000 1.600000
v 1.331287 -0.000000 1.597538
v 1.361803 0.200000 -1.590211
v 1.361803 0.000000 -1.590211
v 1.331287 0.200000 1.597538
v 1.361803 -0.000000 1.590211
v 1.390798 0.200000 -1.578201
v 1.390798 0.000000 -1.578201
v 1.361803 0.200000 1.590211
v 1.390798 -0.000000 1.578201
v 1.417557 0.200000 -1.561803
v 1.417557 0.000000 -1.561803
v 1.390798 0.200000 1.578201
v 1.417557 -0.000000 1.561803
v 1.441421 0.200000 -1.541421
v 1.441421 0.000000 -1.541421
v 1.417557 0.200000 1.561803
v 1.441421 -0.000000 1.541421
v 1.461803 0.200000 -1.517557
v 1.461803 0.000000 -1.517557
v 1.441421 0.200000 1.541421
v 1.461803 -0.000000 1.517557
v 1.478201 0.200000 -1.490798
v 1.478201 0.000000 -1.490798
v 1.461803 0.200000 1.517557
v 1.478201 -0.000000 1.490798
v 1.490211 0.200000 -1.461803
v 1.490211 0.000000 -1.461803
v 1.478201 0.200000 1.490798
v 1.490211 -0.000000 1.461803
v 1.497538 0.200000 -1.431287
v 1.497538 0.000000 -1.431287
v 1.490211 0.200000 1.461803
v 1.497538 -0.000000 1.431287
v 1.500000 0.200000 -1.400000
v 1.500000 0.000000 -1.400000
v 1.497538 0.200000 1.431287
v 1.500000 -0.000000 1.400000
v 1.500000 0.200000 1.400000
v -1.800000 0.000000 -1.280000
v -1.620000 0.000000 -1.100000
v -1.797265 0.000000 -1.248743
v -1.800000 -0.000000 1.280000
v -1.620000 -0.000000 1.460000
v -1.797265 -0.000000 1.311257
v -1.800000 0.200000 -1.280000
v -1.620000 0.200000 -1.460000
v -1.797265 0.200000 -1.311257
v -1.800000 0.200000 1.280000
v -1.620000 0.200000 1.100000
v -1.797265 0.200000 1.248743
v -1.797265 0.000000 -1.311257
v -1.789145 0.000000 -1.218436
v -1.797265 -0.000000 1.248743
v -1.789145 -0.000000 1.341564
v -1.789145 0.200000 -1.341564
v -1.797265 0.200000 -1.248743
v -1.789145 0.200000 1.218436
v -1.797265 0.200000 1.311257
v -1.789145 0.000000 -1.341564
v -1.775885 0.000000 -1.190000
v -1.789145 -0.000000 1.218436
v -1.775885 -0.000000 1.370000
v -1.775885 0.200000 -1.370000
v -1.789145 0.200000 -1.218436
v -1.775885 0.200000 1.190000
v -1.789145 0.200000 1.341564
v -1.775885 0.000000 -1.370000
v -1.757888 0.000000 -1.164298
v -1.775885 -0.000000 1.190000
v -1.757888 -0.000000 1.395702
v -1.757888 0.200000 -1.395702
v -1.775885 0.200000 -1.190000
v -1.757888 0.200000 1.164298
v -1.775885 0.200000 1.370000
v -1.757888 0.000000 -1.395702
v -1.735702 0.000000 -1.142112
v -1.757888 -0.000000 1.164298
v -1.735702 -0.000000 1.417888
v -1.735702 0.200000 -1.417888
v -1.757888 0.200000 -1.164298
v -1.735702 0.200000 1.142112
v -1.757888 0.200000 1.395702
v -1.735702 0.000000 -1.417888
v -1.710000 0.000000 -1.124115
v -1.735702 -0.000000 1.142112
v -1.710000 -0.000000 1.435885
v -1.710000 0.200000 -1.435885
v -1.735702 0.200000 -1.142112
v -1.710000 0.200000 1.124115
v -1.735702 0.200000 1.417888
v -1.710000 0.000000 -1.435885
v -1.681564 0.000000 -1.110855
v -1.710000 -0.000000 1.124115
v -1.681564 -0.000000 1.449145
v -1.681564 0.200000 -1.449145
v -1.710000 0.200000 -1.124115
v -1.681564 0.200000 1.110855
v -1.710000 0.200000 1.435885
v -1.681564 0.000000 -1.449145
v -1.651257 0.000000 -1.102735
v -1.681564 -0.000000 1.110855
v -1.651257 -0.000000 1.457265
v -1.651257 0.200000 -1.457265
v -1.681564 0.200000 -1.110855
v -1.651257 0.200000 1.102735
v -1.681564 0.200000 1.449145
v -1.651257 0.000000 -1.457265
v -1.651257 -0.000000 1.102735
v -1.651257 0.200000 -1.102735
v -1.620000 0.200000 -1.100000
v -1.651257 0.200000 1.457265
v -1.620000 0.200000 1.460000
v -1.620000 0.000000 -1.460000
v -1.620000 -0.000000 1.100000
vt 0.6177 0.0280
vt 0.3333 0.0539
vt 0.3333 0.0280
vt 0.6177 0.0539
vt 0.4694 0.0280
vt 0.4735 0.0539
vt 0.4694 0.0539
vt 0.4816 0.0539
vt 0.4775 0.0280
vt 0.4816 0.0280
vt 0.4775 0.0539
vt 0.4735 0.0280
vt 0.4775 0.0539
vt 0.4735 0.0280
vt 0.4735 0.0539
vt 0.4775 0.0280
vt 0.4816 0.0539
vt 0.4694 0.0280
vt 0.4694 0.0539
vt 0.4816 0.0280
vt 0.2886 0.0280
vt 0.2917 0.0539
vt 0.2886 0.0539
vt 0.6624 0.0539
vt 0.6593 0.0280
vt 0.6624 0.0280
vt 0.6593 0.0539
vt 0.2917 0.0280
vt 0.2952 0.0539
vt 0.6558 0.0280
vt 0.6558 0.0539
vt 0.2952 0.0280
vt 0.2990 0.0539
vt 0.6521 0.0280
vt 0.6521 0.0539
vt 0.2990 0.0280
vt 0.3029 0.0539
vt 0.6481 0.0280
vt 0.6481 0.0539
vt 0.3029 0.0280
vt 0.3070 0.0539
vt 0.6440 0.0280
vt 0.6440 0.0539
vt 0.3066 0.0539
vt 0.3066 0.0280
vt 0.3070 0.0280
vt 0.6444 0.0280
vt 0.3026 0.0539
vt 0.3026 0.0280
vt 0.6444 0.0539
vt 0.6484 0.0280
vt 0.2986 0.0539
vt 0.2986 0.0280
vt 0.6484 0.0539
vt 0.6524 0.0280
vt 0.2949 0.0539
vt 0.2949 0.0280
vt 0.6524 0.0539
vt 0.6561 0.0280
vt 0.2914 0.0539
vt 0.2914 0.0280
vt 0.6561 0.0539
vt 0.6596 0.0280
vt 0.2883 0.0539
vt 0.2883 0.0280
vt 0.6596 0.0539
vt 0.6627 0.0280
vt 0.6748 0.0280
vt 0.6717 0.0539
vt 0.6717 0.0280
vt 0.6627 0.0539
vt 0.2762 0.0280
vt 0.2793 0.0280
vt 0.2762 0.0539
vt 0.6748 0.0539
vt 0.6683 0.0539
vt 0.6683 0.0280
vt 0.2793 0.0539
vt 0.2827 0.0280
vt 0.6645 0.0539
vt 0.6645 0.0280
vt 0.2827 0.0539
vt 0.2865 0.0280
vt 0.6606 0.0539
vt 0.6606 0.0280
vt 0.2865 0.0539
vt 0.2904 0.0280
vt 0.6565 0.0539
vt 0.6565 0.0280
vt 0.2904 0.0539
vt 0.2945 0.0280
vt 0.2945 0.0539
vt 0.1371 0.8840
vt 0.1589 0.8627
vt 0.1409 0.8837
vt 0.4547 0.8850
vt 0.4765 0.8637
vt 0.4585 0.8847
vt 0.8531 0.4866
vt 0.8750 0.4652
vt 0.8569 0.4863
vt 0.5355 0.4856
vt 0.5573 0.4642
vt 0.5393 0.4853
vt 0.1333 0.8837
vt 0.1445 0.8827
vt 0.4509 0.8847
vt 0.4622 0.8837
vt 0.8606 0.4853
vt 0.8494 0.4862
vt 0.5430 0.4843
vt 0.5318 0.4852
vt 0.1297 0.8827
vt 0.1480 0.8812
vt 0.4473 0.8837
vt 0.4656 0.8822
vt 0.8640 0.4837
vt 0.8457 0.4853
vt 0.5464 0.4827
vt 0.5281 0.4843
vt 0.1262 0.8811
vt 0.1511 0.8790
vt 0.4438 0.8821
vt 0.4687 0.8800
vt 0.8671 0.4816
vt 0.8423 0.4837
vt 0.5495 0.4806
vt 0.5247 0.4827
vt 0.1231 0.8790
vt 0.1538 0.8764
vt 0.4407 0.8800
vt 0.4714 0.8774
vt 0.8698 0.4790
vt 0.8392 0.4815
vt 0.5522 0.4780
vt 0.5216 0.4805
vt 0.1205 0.8763
vt 0.1560 0.8734
vt 0.4381 0.8773
vt 0.4736 0.8743
vt 0.8720 0.4759
vt 0.8365 0.4789
vt 0.5544 0.4749
vt 0.5189 0.4779
vt 0.1183 0.8733
vt 0.1576 0.8700
vt 0.4359 0.8743
vt 0.4752 0.8710
vt 0.8736 0.4725
vt 0.8343 0.4758
vt 0.5560 0.4715
vt 0.5167 0.4748
vt 0.1167 0.8699
vt 0.5560 0.4715
vt 0.5573 0.4642
vt 0.5570 0.4679
vt 0.4343 0.8709
vt 0.8736 0.4725
vt 0.8750 0.4652
vt 0.8746 0.4689
vt 0.8746 0.4689
vt 0.8327 0.4724
vt 0.5570 0.4679
vt 0.5151 0.4714
vt 0.1157 0.8663
vt 0.4333 0.8673
vt 0.8318 0.4688
vt 0.8315 0.4651
vt 0.5142 0.4678
vt 0.5138 0.4641
vt 0.1154 0.8625
vt 0.1589 0.8484
vt 0.4330 0.8635
vt 0.4765 0.8494
vt 0.8750 0.4509
vt 0.8315 0.4508
vt 0.5574 0.4499
vt 0.5139 0.4498
vt 0.1154 0.8483
vt 0.1021 0.8203
vt 0.4654 0.4871
vt 0.4331 0.8493
vt 0.4887 0.8213
vt 0.4895 0.5109
vt 0.4753 0.8425
vt 0.8872 0.4228
vt 0.8738 0.4441
vt 0.8879 0.1125
vt 0.8638 0.0887
vt 0.5255 0.0879
vt 0.5005 0.4219
vt 0.1154 0.8416
vt 0.4786 0.8406
vt 0.8770 0.4421
vt 0.5138 0.4432
vt 0.1121 0.8397
vt 0.4815 0.8382
vt 0.8800 0.4397
vt 0.5106 0.4412
vt 0.1092 0.8373
vt 0.4840 0.8353
vt 0.8825 0.4369
vt 0.5077 0.4388
vt 0.1067 0.8344
vt 0.4860 0.8321
vt 0.8845 0.4337
vt 0.5052 0.4360
vt 0.1047 0.8312
vt 0.8845 0.4337
vt 0.8872 0.4228
vt 0.8860 0.4302
vt 0.8860 0.4302
vt 0.5032 0.4328
vt 0.1033 0.8277
vt 0.8869 0.4266
vt 0.8869 0.4266
vt 0.5017 0.4293
vt 0.5008 0.4256
vt 0.5005 0.4219
vt 0.5017 0.4293
vt 0.5008 0.4256
vt 0.1029 0.5100
vt 0.5013 0.1116
vt 0.1271 0.4863
vt 0.4883 0.5036
vt 0.4892 0.5072
vt 0.4869 0.5001
vt 0.4849 0.4970
vt 0.4825 0.4941
vt 0.4796 0.4917
vt 0.4764 0.4897
vt 0.4729 0.4883
vt 0.4692 0.4874
vt 0.8868 0.1052
vt 0.8877 0.1088
vt 0.8853 0.1017
vt 0.8834 0.0985
vt 0.8809 0.0957
vt 0.8780 0.0932
vt 0.8748 0.0913
vt 0.8713 0.0898
vt 0.8676 0.0890
vt 0.1032 0.5063
vt 0.1041 0.5027
vt 0.5016 0.1079
vt 0.5025 0.1042
vt 0.1055 0.4992
vt 0.5040 0.1008
vt 0.1075 0.4960
vt 0.5059 0.0976
vt 0.1100 0.4932
vt 0.5084 0.0948
vt 0.1129 0.4908
vt 0.5113 0.0924
vt 0.1161 0.4889
vt 0.5145 0.0904
vt 0.1196 0.4874
vt 0.5181 0.0890
vt 0.1233 0.4866
vt 0.5217 0.0881
vt 0.4775 0.0280
vt 0.4815 0.0280
vt 0.4775 0.0539
vt 0.4735 0.0539
vt 0.4735 0.0280
vt 0.4755 0.0280
vt 0.4795 0.0280
vt 0.4755 0.0539
vt 0.4715 0.0539
vt 0.4715 0.0280
vt 0.4695 0.0539
vt 0.4695 0.0280
vt 0.4815 0.0539
vt 0.4853 0.0280
vt 0.4675 0.0539
vt 0.4675 0.0280
vt 0.4795 0.0539
vt 0.4835 0.0280
vt 0.4657 0.0539
vt 0.4657 0.0280
vt 0.4853 0.0539
vt 0.4889 0.0280
vt 0.4639 0.0539
vt 0.4639 0.0280
vt 0.4835 0.0539
vt 0.4871 0.0280
vt 0.4622 0.0539
vt 0.4622 0.0280
vt 0.4889 0.0539
vt 0.4920 0.0280
vt 0.4605 0.0539
vt 0.4605 0.0280
vt 0.4871 0.0539
vt 0.4905 0.0280
vt 0.4590 0.0539
vt 0.4590 0.0280
vt 0.4920 0.0539
vt 0.4353 0.0280
vt 0.4388 0.0280
vt 0.4353 0.0539
vt 0.4577 0.0539
vt 0.4577 0.0280
vt 0.4905 0.0539
vt 0.4933 0.0280
vt 0.5123 0.0280
vt 0.5086 0.0539
vt 0.5086 0.0280
vt 0.4388 0.0539
vt 0.4426 0.0280
vt 0.5123 0.0280
vt 0.5086 0.0539
vt 0.5086 0.0280
vt 0.4933 0.0539
vt 0.4387 0.0280
vt 0.4424 0.0280
vt 0.4387 0.0539
vt 0.5123 0.0539
vt 0.5123 0.0539
vt 0.5047 0.0539
vt 0.5047 0.0280
vt 0.4426 0.0539
vt 0.4466 0.0280
vt 0.5047 0.0539
vt 0.5047 0.0280
vt 0.4424 0.0539
vt 0.4463 0.0280
vt 0.5007 0.0539
vt 0.5007 0.0280
vt 0.4466 0.0539
vt 0.4506 0.0280
vt 0.5007 0.0539
vt 0.5007 0.0280
vt 0.4463 0.0539
vt 0.4503 0.0280
vt 0.4966 0.0539
vt 0.4966 0.0280
vt 0.4506 0.0539
vt 0.4546 0.0539
vt 0.4966 0.0539
vt 0.4966 0.0280
vt 0.4503 0.0539
vt 0.4544 0.0539
vt 0.4814 0.0539
vt 0.4814 0.0280
vt 0.4546 0.0280
vt 0.4697 0.0280
vt 0.4814 0.0539
vt 0.4814 0.0280
vt 0.4544 0.0280
vt 0.4696 0.0280
vt 0.4697 0.0539
vt 0.4696 0.0539
vn -1.0000 0.0000 0.0000
vn -0.9272 0.0000 0.3745
vn -0.9062 0.0000 0.4228
vn -0.9272 0.0000 -0.3745
vn -0.9062 -0.0000 -0.4228
vn -0.8826 0.0000 -0.4701
vn -0.8826 -0.0000 0.4701
vn -0.8283 0.0000 0.5603
vn -0.8283 -0.0000 -0.5603
vn -0.7975 0.0000 -0.6033
vn -0.7975 -0.0000 0.6033
vn -0.7296 0.0000 0.6839
vn -0.7296 -0.0000 -0.6839
vn -0.6924 0.0000 -0.7215
vn -0.6924 -0.0000 0.7215
vn -0.6127 0.0000 0.7903
vn -0.6127 -0.0000 -0.7903
vn -0.5701 0.0000 -0.8216
vn -0.5701 -0.0000 0.8216
vn -0.4805 0.0000 0.8770
vn -0.4805 -0.0000 -0.8770
vn -0.4335 0.0000 -0.9012
vn -0.4335 -0.0000 0.9012
vn -0.3363 0.0000 0.9418
vn -0.3363 -0.0000 -0.9418
vn -0.2860 0.0000 -0.9582
vn -0.2860 -0.0000 0.9582
vn -0.1837 0.0000 0.9830
vn -0.1837 -0.0000 -0.9830
vn -0.1314 0.0000 -0.9913
vn -0.1314 -0.0000 0.9913
vn -0.0396 0.0000 0.9992
vn -0.0396 0.0000 -0.9992
vn 0.0262 0.0000 -0.9997
vn 0.0523 -0.0000 -0.9986
vn 0.0262 -0.0000 0.9997
vn 0.1305 -0.0000 -0.9915
vn 0.1823 -0.0000 -0.9832
vn 0.0523 -0.0000 0.9986
vn 0.1305 0.0000 0.9915
vn 0.2840 0.0000 -0.9588
vn 0.3339 -0.0000 -0.9426
vn 0.1823 0.0000 0.9832
vn 0.2840 -0.0000 0.9588
vn 0.4305 -0.0000 -0.9026
vn 0.4772 -0.0000 -0.8788
vn 0.3339 0.0000 0.9426
vn 0.4305 0.0000 0.9026
vn 0.5664 0.0000 -0.8242
vn 0.6088 -0.0000 -0.7933
vn 0.4772 0.0000 0.8788
vn 0.5664 -0.0000 0.8242
vn 0.6883 -0.0000 -0.7254
vn 0.7254 -0.0000 -0.6883
vn 0.6088 0.0000 0.7933
vn 0.6883 0.0000 0.7254
vn 0.7933 -0.0000 -0.6088
vn 0.8242 0.0000 -0.5664
vn 0.7254 -0.0000 0.6883
vn 0.7933 0.0000 0.6088
vn 0.8788 0.0000 -0.4772
vn 0.9026 -0.0000 -0.4305
vn 0.8242 -0.0000 0.5664
vn 0.8788 -0.0000 0.4772
vn 0.9426 0.0000 -0.3339
vn 0.9588 0.0000 -0.2840
vn 0.9026 -0.0000 0.4305
vn 0.9426 -0.0000 0.3339
vn 0.9832 -0.0000 -0.1823
vn 0.9915 -0.0000 -0.1305
vn 0.9588 -0.0000 0.2840
vn 0.9832 0.0000 0.1823
vn 0.9986 0.0000 -0.0523
vn 0.9997 -0.0000 -0.0262
vn 0.9915 0.0000 0.1305
vn 0.9986 0.0000 0.0523
vn 0.9997 0.0000 0.0262
vn -0.0000 -1.0000 -0.0000
vn -0.0000 1.0000 0.0000
vn -0.9996 0.0000 -0.0291
vn -0.9895 0.0000 0.1448
vn -0.9996 0.0000 0.0291
vn -0.9895 0.0000 -0.1448
vn -0.9793 -0.0000 -0.2023
vn -0.9493 -0.0000 -0.3145
vn -0.9293 -0.0000 -0.3692
vn -0.9793 -0.0000 0.2023
vn -0.9493 0.0000 0.3145
vn -0.9293 -0.0000 -0.3693
vn -0.8802 0.0000 -0.4745
vn -0.8511 -0.0000 -0.5251
vn -0.9293 0.0000 0.3693
vn -0.8802 -0.0000 0.4746
vn -0.8802 0.0000 -0.4746
vn -0.8511 -0.0000 -0.5250
vn -0.9293 0.0000 0.3692
vn -0.8802 -0.0000 0.4745
vn -0.7845 0.0000 -0.6202
vn -0.7470 -0.0000 -0.6648
vn -0.8511 -0.0000 0.5250
vn -0.7844 0.0000 0.6202
vn -0.7844 0.0000 -0.6202
vn -0.8511 0.0000 0.5251
vn -0.7845 -0.0000 0.6202
vn -0.6648 -0.0000 -0.7470
vn -0.6202 -0.0000 -0.7845
vn -0.7470 0.0000 0.6648
vn -0.6648 -0.0000 0.7470
vn -0.5251 -0.0000 -0.8511
vn -0.4745 -0.0000 -0.8802
vn -0.6202 0.0000 0.7845
vn -0.5250 -0.0000 0.8511
vn -0.5250 -0.0000 -0.8511
vn -0.4746 -0.0000 -0.8802
vn -0.5251 0.0000 0.8511
vn -0.3692 0.0000 -0.9293
vn -0.3145 -0.0000 -0.9493
vn -0.4746 -0.0000 0.8802
vn -0.3692 -0.0000 0.9293
vn -0.4745 -0.0000 0.8802
vn -0.2023 0.0000 -0.9793
vn -0.1449 -0.0000 -0.9894
vn -0.3145 -0.0000 0.9493
vn -0.1736 0.0000 0.9848
vn -0.1737 0.0000 0.9848
vn -0.0581 0.0000 -0.9983
vn -0.0291 -0.0000 -0.9996
vn -0.0436 0.0000 0.9990
vn 0.0000 0.0000 -1.0000
vn 0.0000 0.0000 1.0000
usemtl STL_object_auv
s 1
f 1/1/1 2/2/1 3/3/1
f 1/1/1 4/4/1 2/2/1
f 5/5/2 6/6/3 7/7/2
f 8/8/4 9/9/5 10/10/4
f 8/8/4 11/11/6 9/9/5
f 12/12/7 6/6/3 5/5/2
f 12/12/7 13/13/8 6/6/3
f 11/11/6 14/14/9 9/9/5
f 11/11/6 15/15/10 14/14/9
f 16/16/11 13/13/8 12/12/7
f 16/16/11 17/17/12 13/13/8
f 15/15/10 18/18/13 14/14/9
f 15/15/10 19/19/14 18/18/13
f 20/20/15 17/17/12 16/16/11
f 20/21/15 21/22/16 17/23/12
f 19/24/14 22/25/17 18/26/13
f 19/24/14 23/27/18 22/25/17
f 24/28/19 21/22/16 20/21/15
f 24/28/19 25/29/20 21/22/16
f 23/27/18 26/30/21 22/25/17
f 23/27/18 27/31/22 26/30/21
f 28/32/23 25/29/20 24/28/19
f 28/32/23 29/33/24 25/29/20
f 27/31/22 30/34/25 26/30/21
f 27/31/22 31/35/26 30/34/25
f 32/36/27 29/33/24 28/32/23
f 32/36/27 33/37/28 29/33/24
f 31/35/26 34/38/29 30/34/25
f 31/35/26 35/39/30 34/38/29
f 36/40/31 33/37/28 32/36/27
f 36/40/31 37/41/32 33/37/28
f 35/39/30 38/42/33 34/38/29
f 35/39/30 39/43/33 38/42/33
f 38/42/33 40/44/34 41/45/35
f 42/46/32 37/41/32 36/40/31
f 42/46/32 43/47/36 37/41/32
f 39/43/33 40/44/34 38/42/33
f 41/45/35 44/48/37 45/49/38
f 43/47/36 46/50/39 37/41/32
f 43/47/36 47/51/40 46/50/39
f 40/44/34 44/48/37 41/45/35
f 45/49/38 48/52/41 49/53/42
f 47/51/40 50/54/43 46/50/39
f 47/51/40 51/55/44 50/54/43
f 44/48/37 48/52/41 45/49/38
f 49/53/42 52/56/45 53/57/46
f 51/55/44 54/58/47 50/54/43
f 51/55/44 55/59/48 54/58/47
f 48/52/41 52/56/45 49/53/42
f 53/57/46 56/60/49 57/61/50
f 55/59/48 58/62/51 54/58/47
f 55/59/48 59/63/52 58/62/51
f 52/56/45 56/60/49 53/57/46
f 57/61/50 60/64/53 61/65/54
f 59/63/52 62/66/55 58/62/51
f 59/63/52 63/67/56 62/66/55
f 56/60/49 60/64/53 57/61/50
f 61/68/54 64/69/57 65/70/58
f 63/67/56 66/71/59 62/66/55
f 63/72/56 67/73/60 66/74/59
f 60/75/53 64/69/57 61/68/54
f 65/70/58 68/76/61 69/77/62
f 67/73/60 70/78/63 66/74/59
f 67/73/60 71/79/64 70/78/63
f 64/69/57 68/76/61 65/70/58
f 69/77/62 72/80/65 73/81/66
f 71/79/64 74/82/67 70/78/63
f 71/79/64 75/83/68 74/82/67
f 68/76/61 72/80/65 69/77/62
f 73/81/66 76/84/69 77/85/70
f 75/83/68 78/86/71 74/82/67
f 75/83/68 79/87/72 78/86/71
f 72/80/65 76/84/69 73/81/66
f 77/85/70 80/88/73 81/89/74
f 79/87/72 82/90/75 78/86/71
f 79/87/72 83/91/76 82/90/75
f 76/84/69 80/88/73 77/85/70
f 81/89/74 84/92/77 83/91/76
f 83/91/76 84/92/77 82/90/75
f 80/88/73 84/92/77 81/89/74
f 85/93/78 86/94/78 87/95/78
f 88/96/78 89/97/78 90/98/78
f 91/99/79 92/100/79 93/101/79
f 94/102/79 95/103/79 96/104/79
f 97/105/78 86/94/78 85/93/78
f 87/95/78 86/94/78 98/106/78
f 99/107/78 89/97/78 88/96/78
f 90/98/78 89/97/78 100/108/78
f 93/101/79 92/100/79 101/109/79
f 102/110/79 92/100/79 91/99/79
f 96/104/79 95/103/79 103/111/79
f 104/112/79 95/103/79 94/102/79
f 105/113/78 86/94/78 97/105/78
f 98/106/78 86/94/78 106/114/78
f 107/115/78 89/97/78 99/107/78
f 100/108/78 89/97/78 108/116/78
f 101/109/79 92/100/79 109/117/79
f 110/118/79 92/100/79 102/110/79
f 103/111/79 95/103/79 111/119/79
f 112/120/79 95/103/79 104/112/79
f 113/121/78 86/94/78 105/113/78
f 106/114/78 86/94/78 114/122/78
f 115/123/78 89/97/78 107/115/78
f 108/116/78 89/97/78 116/124/78
f 109/117/79 92/100/79 117/125/79
f 118/126/79 92/100/79 110/118/79
f 111/119/79 95/103/79 119/127/79
f 120/128/79 95/103/79 112/120/79
f 121/129/78 86/94/78 113/121/78
f 114/122/78 86/94/78 122/130/78
f 123/131/78 89/97/78 115/123/78
f 116/124/78 89/97/78 124/132/78
f 117/125/79 92/100/79 125/133/79
f 126/134/79 92/100/79 118/126/79
f 119/127/79 95/103/79 127/135/79
f 128/136/79 95/103/79 120/128/79
f 129/137/78 86/94/78 121/129/78
f 122/130/78 86/94/78 130/138/78
f 131/139/78 89/97/78 123/131/78
f 124/132/78 89/97/78 132/140/78
f 125/133/79 92/100/79 133/141/79
f 134/142/79 92/100/79 126/134/79
f 127/135/79 95/103/79 135/143/79
f 136/144/79 95/103/79 128/136/79
f 137/145/78 86/94/78 129/137/78
f 130/138/78 86/94/78 138/146/78
f 139/147/78 89/97/78 131/139/78
f 132/140/78 89/97/78 140/148/78
f 133/141/79 92/100/79 141/149/79
f 142/150/79 92/100/79 134/142/79
f 135/143/79 95/103/79 143/151/79
f 144/152/79 95/103/79 136/144/79
f 145/153/78 86/94/78 137/145/78
f 138/154/78 86/155/78 146/156/78
f 147/157/78 89/97/78 139/147/78
f 140/158/78 89/159/78 148/160/78
f 141/149/79 92/100/79 149/161/79
f 150/162/79 92/100/79 142/150/79
f 143/151/79 95/103/79 151/163/79
f 152/164/79 95/103/79 144/152/79
f 153/165/78 86/94/78 145/153/78
f 154/166/78 89/97/78 147/157/78
f 155/167/79 92/100/79 150/162/79
f 155/167/79 156/168/79 92/100/79
f 157/169/79 95/103/79 152/164/79
f 157/169/79 158/170/79 95/103/79
f 159/171/78 86/94/78 153/165/78
f 159/171/78 3/172/78 86/94/78
f 160/173/78 89/97/78 154/166/78
f 160/173/78 5/174/78 89/97/78
f 156/168/79 8/175/79 92/100/79
f 156/168/79 2/176/79 8/175/79
f 158/170/79 4/177/79 95/103/79
f 158/170/79 7/178/79 4/177/79
f 10/179/78 3/172/78 159/171/78
f 10/179/78 38/180/78 3/172/78
f 3/172/78 83/181/78 1/182/78
f 1/182/78 5/174/78 160/173/78
f 1/182/78 42/183/78 5/174/78
f 1/182/78 43/184/78 42/183/78
f 1/182/78 83/181/78 43/184/78
f 5/174/78 42/183/78 12/185/78
f 8/175/79 39/186/79 11/187/79
f 2/176/79 39/186/79 8/175/79
f 2/176/79 40/188/79 39/186/79
f 2/176/79 80/189/79 40/188/79
f 4/177/79 80/189/79 2/176/79
f 4/177/79 84/190/79 80/189/79
f 7/178/79 37/191/79 4/177/79
f 9/192/78 38/180/78 10/179/78
f 12/185/78 42/183/78 16/193/78
f 11/187/79 39/186/79 15/194/79
f 6/195/79 37/191/79 7/178/79
f 14/196/78 38/180/78 9/192/78
f 16/193/78 42/183/78 20/197/78
f 15/194/79 39/186/79 19/198/79
f 13/199/79 37/191/79 6/195/79
f 18/200/78 38/180/78 14/196/78
f 20/197/78 42/183/78 24/201/78
f 19/198/79 39/186/79 23/202/79
f 17/203/79 37/191/79 13/199/79
f 22/204/78 38/180/78 18/200/78
f 24/201/78 42/183/78 28/205/78
f 23/202/79 39/186/79 27/206/79
f 21/207/79 37/191/79 17/203/79
f 26/208/78 38/180/78 22/204/78
f 28/209/78 42/210/78 32/211/78
f 27/206/79 39/186/79 31/212/79
f 25/213/79 37/191/79 21/207/79
f 30/214/78 38/180/78 26/208/78
f 32/211/78 42/210/78 36/215/78
f 31/212/79 39/186/79 35/216/79
f 29/217/79 37/191/79 25/213/79
f 34/218/78 38/219/78 30/220/78
f 33/221/79 37/191/79 29/217/79
f 38/180/78 41/222/78 3/172/78
f 37/191/79 46/223/79 4/177/79
f 41/222/78 81/224/78 3/172/78
f 43/184/78 51/225/78 47/226/78
f 43/184/78 55/227/78 51/225/78
f 43/184/78 59/228/78 55/227/78
f 43/184/78 63/229/78 59/228/78
f 43/184/78 67/230/78 63/229/78
f 43/184/78 71/231/78 67/230/78
f 43/184/78 75/232/78 71/231/78
f 43/184/78 79/233/78 75/232/78
f 43/184/78 83/181/78 79/233/78
f 40/188/79 48/234/79 44/235/79
f 40/188/79 52/236/79 48/234/79
f 40/188/79 56/237/79 52/236/79
f 40/188/79 60/238/79 56/237/79
f 40/188/79 64/239/79 60/238/79
f 40/188/79 68/240/79 64/239/79
f 40/188/79 72/241/79 68/240/79
f 40/188/79 76/242/79 72/241/79
f 40/188/79 80/189/79 76/242/79
f 46/223/79 84/190/79 4/177/79
f 45/243/78 49/244/78 41/222/78
f 50/245/79 54/246/79 46/223/79
f 49/244/78 53/247/78 41/222/78
f 54/246/79 58/248/79 46/223/79
f 53/247/78 57/249/78 41/222/78
f 58/248/79 62/250/79 46/223/79
f 57/249/78 61/251/78 41/222/78
f 62/250/79 66/252/79 46/223/79
f 61/251/78 65/253/78 41/222/78
f 66/252/79 70/254/79 46/223/79
f 65/253/78 69/255/78 41/222/78
f 70/254/79 74/256/79 46/223/79
f 69/255/78 73/257/78 41/222/78
f 74/256/79 78/258/79 46/223/79
f 73/257/78 77/259/78 41/222/78
f 78/258/79 82/260/79 46/223/79
f 77/259/78 81/224/78 41/222/78
f 82/260/79 84/190/79 46/223/79
f 81/224/78 83/181/78 3/172/78
f 85/261/80 87/262/81 91/263/82
f 85/261/80 93/264/83 97/265/84
f 88/266/80 90/267/81 94/268/82
f 88/266/80 96/269/83 99/270/84
f 91/263/82 93/264/83 85/261/80
f 94/268/82 96/269/83 88/266/80
f 97/265/84 101/271/85 105/272/86
f 87/262/81 102/273/87 91/263/82
f 87/262/81 98/274/88 102/273/87
f 99/270/84 103/275/85 107/276/89
f 90/267/81 104/277/87 94/268/82
f 90/267/81 100/278/88 104/277/87
f 93/264/83 101/271/85 97/265/84
f 96/269/83 103/275/85 99/270/84
f 105/272/86 109/279/90 113/280/91
f 98/274/88 110/281/92 102/273/87
f 98/274/88 106/282/93 110/281/92
f 107/276/89 111/283/94 115/284/95
f 100/278/88 112/285/96 104/277/87
f 100/278/88 108/286/97 112/285/96
f 101/271/85 109/279/90 105/272/86
f 103/275/85 111/283/94 107/276/89
f 113/280/91 117/287/98 121/288/99
f 106/282/93 118/289/100 110/281/92
f 106/282/93 114/290/101 118/289/100
f 115/284/95 119/291/102 123/292/99
f 108/286/97 120/293/103 112/285/96
f 108/286/97 116/294/104 120/293/103
f 109/279/90 117/287/98 113/280/91
f 111/283/94 119/291/102 115/284/95
f 121/288/99 125/295/105 129/296/106
f 114/290/101 126/297/107 118/289/100
f 114/298/101 122/299/108 126/300/107
f 123/292/99 127/301/105 131/302/106
f 116/294/104 128/303/107 120/293/103
f 116/294/104 124/304/108 128/303/107
f 117/287/98 125/295/105 121/288/99
f 119/291/102 127/301/105 123/292/99
f 129/305/106 133/306/109 137/307/110
f 122/299/108 134/308/111 126/300/107
f 122/299/108 130/309/112 134/308/111
f 131/310/106 135/311/113 139/312/114
f 124/304/108 136/313/111 128/303/107
f 124/314/108 132/315/115 136/316/111
f 125/317/105 133/306/109 129/305/106
f 127/318/105 135/311/113 131/310/106
f 137/307/110 141/319/116 145/320/117
f 130/309/112 142/321/118 134/308/111
f 130/309/112 138/322/119 142/321/118
f 139/312/114 143/323/116 147/324/117
f 132/315/115 144/325/120 136/316/111
f 132/315/115 140/326/119 144/325/120
f 133/306/109 141/319/116 137/307/110
f 135/311/113 143/323/116 139/312/114
f 145/320/117 149/327/121 153/328/122
f 138/322/119 150/329/123 142/321/118
f 138/322/119 146/330/124 150/329/123
f 147/324/117 151/331/121 154/332/122
f 140/326/119 152/333/123 144/325/120
f 140/326/119 148/334/125 152/333/123
f 141/319/116 149/327/121 145/320/117
f 143/323/116 151/331/121 147/324/117
f 153/328/122 92/335/126 159/336/127
f 146/330/124 155/337/125 150/329/123
f 146/330/124 156/338/128 155/337/125
f 154/332/122 95/339/126 160/340/127
f 148/334/125 157/341/124 152/333/123
f 148/334/125 158/342/128 157/341/124
f 149/327/121 92/335/126 153/328/122
f 151/331/121 95/339/126 154/332/122
f 159/336/127 8/343/129 10/344/129
f 86/345/128 156/338/128 146/330/124
f 86/345/128 3/346/130 156/338/128
f 160/340/127 4/347/129 1/348/129
f 89/349/128 158/342/128 148/334/125
f 89/349/128 5/350/130 158/342/128
f 92/335/126 8/343/129 159/336/127
f 95/339/126 4/347/129 160/340/127
f 3/346/130 2/351/130 156/338/128
f 5/350/130 7/352/130 158/342/128
