# OBJ written from C:\Users\cspla\Desktop\Rangeru;er\RangeRulerR2.obj
mtllib RangeRulerR2.mtl
# Units	meters

g R2
v -8.66953 0.066758 0.44286
v -8.66953 -0.066758 0.44286
v -8.66953 0.066758 -0.44286
v -8.66953 -0.066758 -0.44286
v -2.88984 0.066758 -0.44286
v 2.88985 0.066758 -0.44286
v 2.88984 0.066758 0.44286
v -2.88984 0.066758 0.44286
v -2.88984 -0.066758 -0.44286
v 2.88985 -0.066758 -0.44286
v -2.88984 -0.066758 0.44286
v 2.88985 -0.066758 0.44286
vn 0 0 1
vn 0 -1 0
vn -1 0 0
vn 0 0 -1
vn 0 1 0
vn 1 0 1.3459e-006
vt 0.901638 0.666667
vt 0.901638 1
vt 0.852457 1
vt 0.160198 0.338396
vt 0.208699 0.338396
vt 0.208699 0.654885
vt 0.950819 0.066736
vt 0.950819 0
vt 1 0
vt 0.950819 1
vt 0.950819 0.666667
vt 0.901638 0.333333
vt 0.852457 0.666667
vt 0.160198 0.021907
vt 0.208699 0.021907
vt 0.081447 0.654374
vt 0.032946 0.654374
vt 0.032946 0.337885
vt 0.081447 0.337885
vt 0.032946 0.021396
vt 0.160198 0.654885
vt 1 0.066736
vt 0.950819 0.333333
vt 0.852456 0.333333
vt 0.081447 0.021396
vt 0.980959 0.110007
vt 0.982595 0.199993
vt 0.968869 0.199944
vt 0.967405 0.110262
usemtl rangedef
f 8/1/1 1/2/1 2/3/1
f 9/4/2 11/5/2 2/6/2
f 4/7/3 2/8/3 1/9/3
f 4/10/4 3/2/4 5/1/4
f 9/11/4 5/1/4 6/12/4
f 7/12/1 8/1/1 11/13/1
f 10/14/2 12/15/2 11/5/2
f 3/16/5 1/17/5 8/18/5
f 5/19/5 8/18/5 7/20/5
f 11/13/1 8/1/1 2/3/1
f 4/21/2 9/4/2 2/6/2
f 3/22/3 4/7/3 1/9/3
f 9/11/4 4/10/4 5/1/4
f 10/23/4 9/11/4 6/12/4
f 12/24/1 7/12/1 11/13/1
f 9/4/2 10/14/2 11/5/2
f 5/19/5 3/16/5 8/18/5
f 6/25/5 5/19/5 7/20/5
f 6/26/6 7/27/6 12/28/6 10/29/6
