# OBJ written from C:\Users\cspla\Desktop\Rangeru;er\RangeRulerR1.obj
mtllib RangeRulerR1.mtl
# Units	meters

g R1
v 3.01953 0.066758 2.59286
v 3.01953 -0.066758 2.59286
v 3.01953 0.066758 1.70714
v 3.01953 -0.066758 1.70714
v -2.76015 0.066758 1.70714
v -2.76016 0.066758 2.59286
v -2.76015 -0.066758 1.70714
v -2.76015 -0.066758 2.59286
vn 0 0 -1
vn 0 1 0
vn 1 0 0
vn 0 0 1
vn 0 -1 0
vn -1 -8.92847e-006 -1.3459e-006
vt 0.950819 0.333333
vt 0.901638 0.333333
vt 0.901638 0
vt 0.081447 0.338396
vt 0.032946 0.338396
vt 0.032946 0.021907
vt 0.950819 0.066736
vt 1 0.066736
vt 1 0.133471
vt 0.852456 0.333333
vt 0.160198 0.021885
vt 0.208699 0.021885
vt 0.208699 0.338374
vt 0.950819 0
vt 0.081447 0.021907
vt 0.950819 0.133471
vt 0.852456 0
vt 0.160198 0.338374
vt 0.963264 0.13742
vt 0.9644 0.20241
vt 0.954631 0.20258
vt 0.9536 0.137588
usemtl rangedef
f 7/1/1 5/2/1 3/3/1
f 5/4/2 6/5/2 1/6/2
f 4/7/3 3/8/3 1/9/3
f 1/3/4 6/2/4 8/10/4
f 4/11/5 2/12/5 8/13/5
f 4/14/1 7/1/1 3/3/1
f 3/15/2 5/4/2 1/6/2
f 2/16/3 4/7/3 1/9/3
f 2/17/4 1/3/4 8/10/4
f 7/18/5 4/11/5 8/13/5
f 6/19/6 5/20/6 7/21/6 8/22/6
