# Blender v2.78 (sub 0) OBJ File: 'temps.blend'
# www.blender.org
mtllib t3.mtl
o t3_Mesh
v -0.500010 0.000000 0.299943
v -0.448257 0.000000 0.298282
v -0.397061 0.000000 0.293337
v -0.346550 0.000000 0.285165
v -0.296854 0.000000 0.273826
v -0.248099 0.000000 0.259375
v -0.200415 0.000000 0.241870
v -0.153931 0.000000 0.221370
v -0.108775 0.000000 0.197931
v -0.065075 0.000000 0.171612
v -0.022960 0.000000 0.142469
v 0.017442 0.000000 0.110561
v 0.056001 0.000000 0.075946
v 0.056534 0.000000 0.075396
v -0.065075 0.025000 0.171612
v -0.108775 0.025000 0.197931
v -0.153931 0.025000 0.221370
v -0.200415 0.025000 0.241870
v -0.248099 0.025000 0.259375
v -0.296854 0.025000 0.273826
v -0.346550 0.025000 0.285165
v -0.397061 0.025000 0.293337
v -0.448257 0.025000 0.298282
v -0.500010 0.025000 0.299943
v 0.083092 0.000000 0.047991
v -0.372438 0.025000 0.491753
v 0.119212 0.000000 0.006628
v -0.309700 0.025000 0.481666
v 0.152386 0.000000 -0.036803
v -0.247901 0.025000 0.467664
v 0.182499 0.000000 -0.082239
v -0.187222 0.025000 0.449817
v 0.209434 0.000000 -0.129619
v -0.127844 0.025000 0.428192
v 0.233078 0.000000 -0.178879
v -0.069946 0.025000 0.402860
v 0.253315 0.000000 -0.229956
v -0.013711 0.025000 0.373889
v 0.267479 0.000000 -0.273651
v 0.040683 0.025000 0.341348
v 0.279123 0.000000 -0.318035
v 0.093054 0.025000 0.305306
v 0.288222 0.000000 -0.362981
v 0.143221 0.025000 0.265833
v 0.294752 0.000000 -0.408360
v 0.191004 0.025000 0.222997
v 0.298689 0.000000 -0.454044
v 0.191456 0.025000 0.222564
v 0.300006 0.000000 -0.499905
v 0.500010 0.000000 -0.499905
v 0.222867 0.025000 0.191160
v 0.498501 0.000000 -0.444718
v 0.223045 0.025000 0.190964
v 0.493973 0.000000 -0.389585
v 0.247458 0.025000 0.164499
v 0.486426 0.000000 -0.334724
v 0.270857 0.025000 0.137214
v 0.475860 0.000000 -0.280354
v 0.314552 0.025000 0.080308
v 0.462275 0.000000 -0.226695
v 0.354004 0.025000 0.020492
v 0.445669 0.000000 -0.173967
v 0.389090 0.025000 -0.041989
v 0.419686 0.000000 -0.106891
v 0.419686 0.025000 -0.106891
v 0.389090 0.000000 -0.041989
v 0.445669 0.025000 -0.173967
v 0.354004 0.000000 0.020492
v 0.462275 0.025000 -0.226695
v 0.314552 0.000000 0.080308
v 0.475860 0.025000 -0.280354
v 0.270857 0.000000 0.137214
v 0.247458 0.000000 0.164499
v 0.223045 0.000000 0.190964
v 0.222867 0.000000 0.191160
v 0.486426 0.025000 -0.334724
v 0.152386 0.025000 -0.036803
v 0.493973 0.025000 -0.389585
v 0.498501 0.025000 -0.444718
v 0.119212 0.025000 0.006628
v 0.500010 0.025000 -0.499905
v 0.083092 0.025000 0.047991
v 0.056001 0.025000 0.075946
v 0.056534 0.025000 0.075396
v -0.022960 0.025000 0.142469
v 0.017442 0.025000 0.110561
v 0.300006 0.025000 -0.499905
v 0.298689 0.025000 -0.454044
v 0.294752 0.025000 -0.408360
v 0.288222 0.025000 -0.362981
v 0.279123 0.025000 -0.318035
v 0.267479 0.025000 -0.273651
v 0.253315 0.025000 -0.229956
v 0.233078 0.025000 -0.178879
v 0.209434 0.025000 -0.129619
v 0.182499 0.025000 -0.082239
v 0.191456 0.000000 0.222564
v 0.191004 0.000000 0.222997
v 0.143221 0.000000 0.265833
v 0.093054 0.000000 0.305306
v 0.040683 0.000000 0.341348
v -0.013711 0.000000 0.373889
v -0.069946 0.000000 0.402860
v -0.127844 0.000000 0.428192
v -0.187222 0.000000 0.449817
v -0.247901 0.000000 0.467664
v -0.309700 0.000000 0.481666
v -0.372438 0.000000 0.491753
v -0.435935 0.000000 0.497855
v -0.500010 0.000000 0.499905
v -0.500010 0.025000 0.499905
v -0.435935 0.025000 0.497855
vt 0.2985 0.3019
vt 0.2985 0.3018
vt 0.3107 0.3023
vt 0.3852 0.5687
vt 0.3670 0.5490
vt 0.5243 0.4960
vt 0.2998 0.2619
vt 0.3011 0.2608
vt 0.3031 0.2639
vt 0.3027 0.3366
vt 0.3041 0.3373
vt 0.3021 0.3410
vt 0.2951 0.3216
vt 0.2935 0.3211
vt 0.2945 0.3180
vt 0.2911 0.2708
vt 0.2896 0.2715
vt 0.2883 0.2689
vt 0.3060 0.2739
vt 0.3074 0.2734
vt 0.3088 0.2776
vt 0.3103 0.3103
vt 0.3119 0.3104
vt 0.3114 0.3144
vt 0.2978 0.2923
vt 0.2963 0.2925
vt 0.2957 0.2891
vt 0.3007 0.3400
vt 0.2993 0.3444
vt 0.2960 0.3184
vt 0.2953 0.3148
vt 0.3101 0.2907
vt 0.3116 0.2905
vt 0.3121 0.2949
vt 0.2948 0.2576
vt 0.2883 0.2633
vt 0.2865 0.2627
vt 0.2881 0.3397
vt 0.2865 0.3404
vt 0.2869 0.3366
vt 0.2935 0.2761
vt 0.2945 0.2788
vt 0.2931 0.2794
vt 0.3098 0.3142
vt 0.3107 0.3183
vt 0.3017 0.2647
vt 0.3047 0.2670
vt 0.2982 0.3431
vt 0.2950 0.3471
vt 0.3106 0.2951
vt 0.3123 0.2972
vt 0.2968 0.3152
vt 0.2959 0.3117
vt 0.2898 0.2682
vt 0.2871 0.2661
vt 0.2967 0.3018
vt 0.2968 0.2993
vt 0.3074 0.2781
vt 0.3100 0.2819
vt 0.3091 0.3180
vt 0.3098 0.3222
vt 0.2886 0.3371
vt 0.2883 0.3332
vt 0.2973 0.2889
vt 0.2950 0.2858
vt 0.2975 0.3120
vt 0.2964 0.3085
vt 0.3107 0.2973
vt 0.3124 0.2994
vt 0.2947 0.2561
vt 0.2985 0.2578
vt 0.2899 0.3339
vt 0.2898 0.3302
vt 0.2920 0.2767
vt 0.2909 0.2741
vt 0.3083 0.3218
vt 0.3087 0.3261
vt 0.3033 0.2677
vt 0.3062 0.2702
vt 0.3108 0.2996
vt 0.3123 0.2997
vt 0.3123 0.3023
vt 0.2979 0.3087
vt 0.2966 0.3053
vt 0.2887 0.2657
vt 0.3108 0.2995
vt 0.2982 0.2958
vt 0.2984 0.2993
vt 0.2913 0.3309
vt 0.2912 0.3272
vt 0.3085 0.2822
vt 0.3109 0.2862
vt 0.3072 0.3256
vt 0.3074 0.3299
vt 0.2966 0.2855
vt 0.2942 0.2826
vt 0.3123 0.3023
vt 0.2983 0.3054
vt 0.2967 0.3018
vt 0.2974 0.2594
vt 0.2923 0.2734
vt 0.3059 0.3293
vt 0.3059 0.3336
vt 0.2940 0.3247
vt 0.2927 0.3278
vt 0.3047 0.2708
vt 0.3106 0.3023
vt 0.3122 0.3064
vt 0.2966 0.2959
vt 0.3044 0.3330
vt 0.2924 0.3241
vt 0.3094 0.2865
vt 0.2948 0.3453
vt 0.3106 0.3064
vt 0.2956 0.2821
vt 0.7755 0.8289
vt 0.7672 0.9788
vt 0.8139 0.8282
vt 0.0207 0.2216
vt 0.0218 0.2626
vt 0.1692 0.2229
vt 0.1731 0.2909
vt 0.1702 0.2570
vt 0.0251 0.3036
vt 0.1848 0.3580
vt 0.1780 0.3246
vt 0.0448 0.3860
vt 0.2039 0.4234
vt 0.1934 0.3910
vt 0.0672 0.4650
vt 0.2402 0.5004
vt 0.2190 0.4614
vt 0.1093 0.5631
vt 0.2826 0.5694
vt 0.2603 0.5356
vt 0.1646 0.6539
vt 0.0865 0.5148
vt 0.2919 0.7917
vt 0.4228 0.7073
vt 0.2564 0.7599
vt 0.3681 0.8478
vt 0.4864 0.7495
vt 0.3292 0.8211
vt 0.4945 0.9116
vt 0.5542 0.7830
vt 0.4085 0.8720
vt 0.5820 0.9454
vt 0.6255 0.8077
vt 0.5377 0.9299
vt 0.6733 0.9680
vt 0.6995 0.8231
vt 0.6273 0.9581
vt 0.1353 0.6095
vt 0.8898 0.6598
vt 0.9280 0.6615
vt 0.8725 0.8075
vt 0.7200 0.9749
vt 0.0549 0.4258
vt 0.4540 0.7295
vt 0.0370 0.3456
vt 0.6622 0.8165
vt 0.3718 0.6634
vt 0.2145 0.7165
vt 0.2326 0.7361
vt 0.7373 0.8272
vt 0.8148 0.9798
vt 0.2561 0.7596
vt 0.3925 0.6827
vt 0.5895 0.7965
vt 0.1971 0.6962
vt 0.3073 0.6017
vt 0.3929 0.6831
vt 0.5198 0.7674
vt 0.9674 0.8123
vt 0.9198 0.8114
vt 0.9665 0.6608
vt 0.8148 0.6491
vt 0.8521 0.6556
vt 0.7798 0.7907
vt 0.7420 0.6291
vt 0.7780 0.6402
vt 0.6903 0.7625
vt 0.6723 0.6000
vt 0.7067 0.6156
vt 0.5610 0.7046
vt 0.6066 0.5621
vt 0.6389 0.5821
vt 0.4817 0.6536
vt 0.4090 0.5925
vt 0.5754 0.5399
vt 0.4445 0.6243
vt 0.3496 0.5288
vt 0.4598 0.4342
vt 0.2879 0.4421
vt 0.4128 0.3682
vt 0.3172 0.4865
vt 0.2391 0.3474
vt 0.3715 0.2939
vt 0.2618 0.3956
vt 0.2074 0.2584
vt 0.3459 0.2235
vt 0.2198 0.2976
vt 0.1895 0.1782
vt 0.3305 0.1572
vt 0.1973 0.2186
vt 0.1743 0.0952
vt 0.3228 0.0895
vt 0.1777 0.1362
vt 0.1732 0.0542
vt 0.3218 0.0555
vt 0.2935 0.3019
vt 0.7346 0.7780
vt 0.6470 0.7442
vt 0.3373 0.1906
vt 0.5450 0.5153
vt 0.3928 0.3330
vt 0.5206 0.6804
vt 0.3257 0.1235
vt 0.3565 0.2560
vt 0.8258 0.8005
vt 0.4352 0.4020
vt 0.5455 0.5157
vn 0.0000 -1.0000 0.0000
vn 0.0000 1.0000 -0.0000
vn 0.9907 0.0000 0.1363
vn 0.1587 0.0000 0.9873
vn -0.4035 0.0000 -0.9150
vn -0.9898 0.0000 -0.1424
vn 0.9325 0.0000 0.3612
vn 0.5669 0.0000 0.8238
vn -0.8336 0.0000 -0.5524
vn 0.0957 0.0000 0.9954
vn -0.4607 0.0000 -0.8876
vn 0.7932 0.0000 0.6090
vn 0.0000 0.0000 -1.0000
vn -0.0321 0.0000 -0.9995
vn -0.9513 0.0000 -0.3084
vn 0.5134 0.0000 0.8582
vn 0.9816 0.0000 0.1908
vn 0.0320 0.0000 0.9995
vn 0.7591 0.0000 0.6510
vn -0.5159 0.0000 -0.8566
vn -0.9963 0.0000 -0.0858
vn -0.7181 0.0000 -0.6959
vn 0.9045 0.0000 0.4264
vn 0.4580 0.0000 0.8890
vn -0.0961 0.0000 -0.9954
vn -0.8693 0.0000 -0.4942
vn -0.5690 0.0000 -0.8223
vn 0.7350 0.0000 0.6780
vn 0.9996 0.0000 0.0273
vn -0.1597 0.0000 -0.9872
vn -0.9673 0.0000 -0.2538
vn 0.4008 0.0000 0.9161
vn 0.9694 0.0000 0.2454
vn 0.7070 0.0000 0.7072
vn -0.6198 0.0000 -0.7848
vn -0.9996 0.0000 -0.0287
vn 0.7413 0.0000 0.6711
vn -0.7532 0.0000 -0.6578
vn -0.2225 0.0000 -0.9749
vn 0.8719 0.0000 0.4896
vn 0.3422 0.0000 0.9396
vn -0.9015 0.0000 -0.4327
vn 0.6919 0.0000 0.7220
vn -0.6680 0.0000 -0.7441
vn 0.9966 0.0000 0.0819
vn -0.9801 0.0000 -0.1984
vn 0.2822 0.0000 0.9594
vn -0.2842 0.0000 -0.9588
vn 0.9538 0.0000 0.3004
vn 0.6675 0.0000 0.7446
vn -0.7947 0.0000 -0.6070
vn 0.2210 0.0000 0.9753
vn -0.3446 0.0000 -0.9387
vn 0.8348 0.0000 0.5506
vn -1.0000 0.0000 0.0000
vn 0.6184 0.0000 0.7859
vn -0.9297 0.0000 -0.3683
vn 0.7414 0.0000 0.6711
usemtl None
s off
f 13/1/1 14/2/1 97/3/1
f 53/4/2 55/5/2 82/6/2
f 54/7/3 78/8/3 76/9/3
f 107/10/4 28/11/4 26/12/4
f 7/13/5 18/14/5 17/15/5
f 43/16/6 90/17/6 89/18/6
f 62/19/7 67/20/7 65/21/7
f 100/22/8 42/23/8 40/24/8
f 29/25/9 77/26/9 96/27/9
f 108/28/10 26/12/10 112/29/10
f 8/30/11 17/15/11 16/31/11
f 70/32/12 59/33/12 57/34/12
f 50/35/13 49/36/13 87/37/13
f 1/38/14 24/39/14 23/40/14
f 39/41/15 37/42/15 93/43/15
f 101/44/16 40/24/16 38/45/16
f 56/46/17 76/9/17 71/47/17
f 109/48/18 112/29/18 111/49/18
f 72/50/19 57/34/19 55/51/19
f 9/52/20 16/31/20 15/53/20
f 45/54/21 89/18/21 88/55/21
f 14/2/22 84/56/22 82/57/22
f 64/58/23 65/21/23 63/59/23
f 102/60/24 38/45/24 36/61/24
f 2/62/25 23/40/25 22/63/25
f 31/64/26 96/27/26 95/65/26
f 10/66/27 15/53/27 85/67/27
f 73/68/28 55/51/28 53/69/28
f 50/35/29 81/70/29 79/71/29
f 3/72/30 22/63/30 21/73/30
f 39/41/31 92/74/31 91/75/31
f 103/76/32 36/61/32 34/77/32
f 58/78/33 71/47/33 69/79/33
f 75/80/34 51/81/34 48/82/34
f 11/83/35 85/67/35 86/84/35
f 47/85/36 88/55/36 87/37/36
f 74/86/37 53/69/37 51/81/37
f 27/87/38 25/88/38 82/57/38
f 4/89/39 21/73/39 20/90/39
f 66/91/40 63/59/40 61/92/40
f 104/93/41 34/77/41 32/94/41
f 33/95/42 95/65/42 94/96/42
f 97/3/43 48/82/43 46/97/43
f 12/98/44 86/84/44 83/99/44
f 52/100/45 79/71/45 78/8/45
f 41/101/46 91/75/46 90/17/46
f 105/102/47 32/94/47 30/103/47
f 6/104/48 5/105/48 20/90/48
f 60/106/49 69/79/49 67/20/49
f 98/107/50 46/97/50 44/108/50
f 13/1/22 83/99/22 84/56/22
f 27/87/51 80/109/51 77/26/51
f 106/110/52 30/103/52 28/11/52
f 6/104/53 19/111/53 18/14/53
f 68/112/54 61/92/54 59/33/54
f 110/113/55 111/49/55 24/39/55
f 99/114/56 44/108/56 42/23/56
f 37/42/57 35/115/57 94/96/57
f 2/116/1 109/117/1 1/118/1
f 50/119/1 52/120/1 49/121/1
f 45/122/1 47/123/1 54/124/1
f 41/125/1 43/126/1 58/127/1
f 37/128/1 39/129/1 62/130/1
f 33/131/1 35/132/1 66/133/1
f 29/134/1 31/135/1 70/136/1
f 64/137/1 35/132/1 37/128/1
f 74/86/1 75/80/1 97/3/1
f 99/138/1 12/139/1 98/140/1
f 101/141/1 10/142/1 100/143/1
f 103/144/1 8/145/1 102/146/1
f 105/147/1 6/148/1 104/149/1
f 107/150/1 4/151/1 106/152/1
f 31/135/1 68/153/1 70/136/1
f 22/154/2 23/155/2 26/156/2
f 108/157/1 109/117/1 2/116/1
f 58/127/1 60/158/1 41/125/1
f 99/138/1 11/159/1 12/139/1
f 56/160/1 43/126/1 45/122/1
f 68/153/1 31/135/1 33/131/1
f 35/132/1 64/137/1 66/133/1
f 105/147/1 106/152/1 5/161/1
f 25/162/1 73/163/1 74/164/1
f 3/165/1 108/157/1 2/116/1
f 109/117/1 110/166/1 1/118/1
f 66/133/1 68/153/1 33/131/1
f 74/164/1 97/167/1 14/168/1
f 39/129/1 60/158/1 62/130/1
f 103/144/1 7/169/1 8/145/1
f 72/170/1 73/163/1 27/171/1
f 54/124/1 56/160/1 45/122/1
f 3/165/1 107/150/1 108/157/1
f 62/130/1 64/137/1 37/128/1
f 27/171/1 29/134/1 70/136/1
f 98/140/1 12/139/1 13/172/1
f 10/142/1 11/159/1 100/143/1
f 5/161/1 6/148/1 105/147/1
f 11/159/1 99/138/1 100/143/1
f 43/126/1 56/160/1 58/127/1
f 101/141/1 102/146/1 9/173/1
f 104/149/1 6/148/1 7/169/1
f 101/141/1 9/173/1 10/142/1
f 102/146/1 8/145/1 9/173/1
f 60/158/1 39/129/1 41/125/1
f 72/170/1 27/171/1 70/136/1
f 103/144/1 104/149/1 7/169/1
f 47/123/1 52/120/1 54/124/1
f 106/152/1 4/151/1 5/161/1
f 27/171/1 73/163/1 25/162/1
f 52/120/1 47/123/1 49/121/1
f 25/162/1 74/164/1 14/168/1
f 97/3/1 98/107/1 13/1/1
f 111/174/2 112/175/2 24/176/2
f 3/165/1 4/151/1 107/150/1
f 20/177/2 21/178/2 30/179/2
f 18/180/2 19/181/2 34/182/2
f 16/183/2 17/184/2 38/185/2
f 85/186/2 15/187/2 42/188/2
f 46/189/2 86/190/2 44/191/2
f 46/97/2 48/82/2 51/81/2
f 57/192/2 80/193/2 55/5/2
f 61/194/2 96/195/2 59/196/2
f 65/197/2 94/198/2 63/199/2
f 69/200/2 92/201/2 67/202/2
f 76/203/2 90/204/2 71/205/2
f 79/206/2 88/207/2 78/208/2
f 79/206/2 81/209/2 87/210/2
f 108/28/4 107/10/4 26/12/4
f 84/56/2 83/99/2 46/211/2
f 30/179/2 32/212/2 20/177/2
f 17/184/2 36/213/2 38/185/2
f 36/213/2 17/184/2 18/180/2
f 46/97/2 51/81/2 53/69/2
f 71/205/2 90/204/2 91/214/2
f 53/4/2 84/215/2 46/189/2
f 57/192/2 59/196/2 80/193/2
f 79/206/2 87/210/2 88/207/2
f 32/212/2 19/181/2 20/177/2
f 63/199/2 94/198/2 95/216/2
f 40/217/2 15/187/2 16/183/2
f 38/185/2 40/217/2 16/183/2
f 112/175/2 23/155/2 24/176/2
f 69/200/2 71/205/2 91/214/2
f 86/190/2 85/186/2 44/191/2
f 89/218/2 90/204/2 76/203/2
f 19/181/2 32/212/2 34/182/2
f 85/186/2 42/188/2 44/191/2
f 34/182/2 36/213/2 18/180/2
f 65/197/2 93/219/2 94/198/2
f 23/155/2 112/175/2 26/156/2
f 55/5/2 80/193/2 82/6/2
f 21/178/2 28/220/2 30/179/2
f 59/196/2 77/221/2 80/193/2
f 53/4/2 82/6/2 84/215/2
f 61/194/2 63/199/2 95/216/2
f 76/203/2 78/208/2 89/218/2
f 61/194/2 95/216/2 96/195/2
f 26/156/2 28/220/2 22/154/2
f 69/200/2 91/214/2 92/201/2
f 67/202/2 92/201/2 93/219/2
f 96/195/2 77/221/2 59/196/2
f 86/190/2 46/189/2 83/222/2
f 15/187/2 40/217/2 42/188/2
f 28/220/2 21/178/2 22/154/2
f 78/208/2 88/207/2 89/218/2
f 56/46/3 54/7/3 76/9/3
f 65/197/2 67/202/2 93/219/2
f 8/30/5 7/13/5 17/15/5
f 45/54/6 43/16/6 89/18/6
f 64/58/7 62/19/7 65/21/7
f 101/44/8 100/22/8 40/24/8
f 31/64/9 29/25/9 96/27/9
f 109/48/10 108/28/10 112/29/10
f 9/52/11 8/30/11 16/31/11
f 72/50/12 70/32/12 57/34/12
f 81/70/13 50/35/13 87/37/13
f 2/62/14 1/38/14 23/40/14
f 92/74/15 39/41/15 93/43/15
f 102/60/16 101/44/16 38/45/16
f 58/78/17 56/46/17 71/47/17
f 110/113/18 109/48/18 111/49/18
f 73/68/19 72/50/19 55/51/19
f 10/66/20 9/52/20 15/53/20
f 47/85/21 45/54/21 88/55/21
f 25/88/22 14/2/22 82/57/22
f 66/91/23 64/58/23 63/59/23
f 103/76/24 102/60/24 36/61/24
f 3/72/25 2/62/25 22/63/25
f 33/95/26 31/64/26 95/65/26
f 11/83/27 10/66/27 85/67/27
f 74/86/28 73/68/28 53/69/28
f 52/100/29 50/35/29 79/71/29
f 4/89/30 3/72/30 21/73/30
f 41/101/31 39/41/31 91/75/31
f 104/93/32 103/76/32 34/77/32
f 60/106/33 58/78/33 69/79/33
f 97/3/34 75/80/34 48/82/34
f 12/98/35 11/83/35 86/84/35
f 49/36/36 47/85/36 87/37/36
f 75/80/58 74/86/58 51/81/58
f 80/109/38 27/87/38 82/57/38
f 5/105/39 4/89/39 20/90/39
f 68/112/40 66/91/40 61/92/40
f 105/102/41 104/93/41 32/94/41
f 35/115/42 33/95/42 94/96/42
f 98/107/43 97/3/43 46/97/43
f 13/1/44 12/98/44 83/99/44
f 54/7/45 52/100/45 78/8/45
f 43/16/46 41/101/46 90/17/46
f 106/110/47 105/102/47 30/103/47
f 19/111/48 6/104/48 20/90/48
f 62/19/49 60/106/49 67/20/49
f 99/114/50 98/107/50 44/108/50
f 14/2/22 13/1/22 84/56/22
f 29/25/51 27/87/51 77/26/51
f 107/10/52 106/110/52 28/11/52
f 7/13/53 6/104/53 18/14/53
f 70/32/54 68/112/54 59/33/54
f 1/38/55 110/113/55 24/39/55
f 100/22/56 99/114/56 42/23/56
f 93/43/57 37/42/57 94/96/57
