# Blender v2.83.5 OBJ File: ''
# www.blender.org
o Cylinder.001
v 0.444135 -0.039554 0.152254
v 0.444135 0.038965 0.152254
v 0.624876 0.038965 0.335047
v 0.624876 -0.039554 0.335047
v 0.694326 0.038965 0.464977
v 0.694326 -0.039554 0.464977
v 0.737092 0.038964 0.605959
v 0.737092 -0.039554 0.605959
v 0.751533 0.038964 0.752576
v 0.751533 -0.039554 0.752576
v 0.737092 0.038964 0.899193
v 0.737092 -0.039554 0.899193
v 0.694326 0.038964 1.040175
v 0.694326 -0.039555 1.040175
v 0.624876 0.038964 1.170105
v 0.624876 -0.039555 1.170105
v 0.531414 0.038964 1.283990
v 0.531414 -0.039555 1.283990
v 0.417529 0.038964 1.377453
v 0.417529 -0.039555 1.377453
v 0.287599 0.038964 1.446902
v 0.287599 -0.039555 1.446902
v 0.146617 0.038964 1.489668
v 0.146617 -0.039555 1.489668
v -0.000000 0.038964 1.504109
v -0.000000 -0.039555 1.504109
v -0.146617 0.038964 1.489668
v -0.146617 -0.039555 1.489668
v -0.287599 0.038964 1.446902
v -0.287599 -0.039555 1.446902
v -0.417529 0.038964 1.377453
v -0.417529 -0.039555 1.377453
v -0.531414 0.038964 1.283990
v -0.531414 -0.039555 1.283990
v -0.624877 0.038964 1.170105
v -0.624877 -0.039555 1.170105
v -0.694326 0.038964 1.040175
v -0.694326 -0.039555 1.040175
v -0.737092 0.038964 0.899192
v -0.737092 -0.039554 0.899192
v -0.751533 0.038964 0.752575
v -0.751533 -0.039554 0.752575
v -0.737092 0.038964 0.605959
v -0.737092 -0.039554 0.605959
v -0.694325 0.038965 0.464976
v -0.694325 -0.039554 0.464976
v -0.624876 0.038965 0.335046
v -0.624876 -0.039554 0.335046
v -0.441129 0.038965 0.174517
v -0.441129 -0.039554 0.174517
v 0.000000 -0.039554 -0.474652
v 0.000000 0.038965 -0.474652
v 0.092600 0.038965 -0.465532
v 0.092600 -0.039554 -0.465532
v 0.181641 0.038965 -0.438522
v 0.181641 -0.039554 -0.438522
v 0.263703 0.038965 -0.394659
v 0.263703 -0.039554 -0.394659
v 0.335630 0.038965 -0.335630
v 0.335630 -0.039554 -0.335630
v 0.394659 0.038965 -0.263703
v 0.394659 -0.039554 -0.263703
v 0.438521 0.038965 -0.181641
v 0.438521 -0.039554 -0.181641
v 0.465532 0.038965 -0.092600
v 0.465532 -0.039554 -0.092600
v 0.474652 0.038965 0.000000
v 0.474652 -0.039554 -0.000000
v 0.465532 0.038965 0.092600
v 0.465532 -0.039554 0.092600
v -0.465532 0.038965 0.092600
v -0.465532 -0.039554 0.092599
v -0.474652 0.038965 -0.000000
v -0.474652 -0.039554 -0.000000
v -0.465532 0.038965 -0.092601
v -0.465532 -0.039554 -0.092601
v -0.438521 0.038965 -0.181642
v -0.438521 -0.039554 -0.181642
v -0.394659 0.038965 -0.263703
v -0.394659 -0.039554 -0.263703
v -0.335629 0.038965 -0.335630
v -0.335629 -0.039554 -0.335630
v -0.263702 0.038965 -0.394659
v -0.263702 -0.039554 -0.394659
v -0.181641 0.038965 -0.438522
v -0.181641 -0.039554 -0.438522
v -0.092600 0.038965 -0.465532
v -0.092600 -0.039554 -0.465532
v 0.000068 0.038965 0.430203
v 0.000068 -0.039554 0.430203
vt 0.035768 0.940381
vt 0.043697 0.930790
vt 0.043636 0.940431
vt 0.035829 0.930740
vt 0.043741 0.923938
vt 0.035873 0.923888
vt 0.043788 0.916503
vt 0.035920 0.916453
vt 0.043837 0.908771
vt 0.035969 0.908721
vt 0.043886 0.901038
vt 0.036018 0.900988
vt 0.043933 0.893603
vt 0.036066 0.893553
vt 0.043977 0.886751
vt 0.036109 0.886701
vt 0.044015 0.880745
vt 0.119326 0.911482
vt 0.113320 0.903614
vt 0.119326 0.903614
vt 0.113320 0.911482
vt 0.106468 0.903614
vt 0.106468 0.911482
vt 0.099032 0.903614
vt 0.099032 0.911482
vt 0.091300 0.903614
vt 0.091300 0.911482
vt 0.083567 0.903614
vt 0.083567 0.911482
vt 0.076132 0.903614
vt 0.076132 0.911482
vt 0.069280 0.903614
vt 0.069280 0.911482
vt 0.063273 0.903614
vt 0.060645 0.922507
vt 0.068584 0.928418
vt 0.068512 0.922412
vt 0.060717 0.928513
vt 0.068666 0.935270
vt 0.060799 0.935364
vt 0.068756 0.942705
vt 0.060888 0.942799
vt 0.068848 0.950437
vt 0.060981 0.950531
vt 0.068941 0.958169
vt 0.061074 0.958263
vt 0.069030 0.965604
vt 0.061163 0.965698
vt 0.069112 0.972456
vt 0.074009 0.921497
vt 0.083700 0.913629
vt 0.074009 0.913629
vt 0.080652 0.886354
vt 0.085535 0.878486
vt 0.080652 0.878486
vt 0.085535 0.886354
vt 0.090231 0.878486
vt 0.090231 0.886354
vt 0.094559 0.878486
vt 0.094559 0.886354
vt 0.098353 0.878486
vt 0.035605 0.966111
vt 0.043497 0.962367
vt 0.043473 0.966161
vt 0.035629 0.962317
vt 0.043524 0.958040
vt 0.035656 0.957990
vt 0.043554 0.953344
vt 0.035686 0.953294
vt 0.043585 0.948460
vt 0.035717 0.948410
vt 0.043616 0.943577
vt 0.035748 0.943527
vt 0.054195 0.870707
vt 0.058515 0.862839
vt 0.054195 0.862839
vt 0.058515 0.870707
vt 0.063398 0.862839
vt 0.063398 0.870707
vt 0.068282 0.862839
vt 0.068282 0.870707
vt 0.072978 0.862839
vt 0.072978 0.870707
vt 0.077306 0.862839
vt 0.077306 0.870707
vt 0.081099 0.862839
vt 0.062951 0.886354
vt 0.066744 0.878486
vt 0.062951 0.878486
vt 0.066744 0.886354
vt 0.071072 0.878486
vt 0.071072 0.886354
vt 0.075768 0.878486
vt 0.075768 0.886354
vt 0.282980 0.678953
vt 0.253874 0.670124
vt 0.313270 0.386158
vt 0.067590 0.280783
vt 0.072310 0.232857
vt 0.442253 0.612980
vt 0.422957 0.636491
vt 0.517505 0.144302
vt 0.540207 0.186773
vt 0.184243 0.612980
vt 0.169906 0.586156
vt 0.139541 0.107076
vt 0.176768 0.076525
vt 0.343517 0.678953
vt 0.313248 0.681934
vt 0.554186 0.328708
vt 0.540207 0.374792
vt 0.313248 0.035124
vt 0.361173 0.039844
vt 0.072310 0.328708
vt 0.456590 0.586156
vt 0.486955 0.107076
vt 0.203539 0.636491
vt 0.108991 0.144302
vt 0.372622 0.670124
vt 0.558906 0.280782
vt 0.158095 0.526782
vt 0.161077 0.496513
vt 0.265322 0.039844
vt 0.086290 0.374792
vt 0.169054 0.469736
vt 0.458425 0.477013
vt 0.465419 0.496513
vt 0.465419 0.557050
vt 0.449728 0.076525
vt 0.227050 0.655786
vt 0.086289 0.186773
vt 0.399446 0.655786
vt 0.554186 0.232857
vt 0.161077 0.557051
vt 0.219239 0.053824
vt 0.108991 0.417263
vt 0.517505 0.417263
vt 0.468401 0.526782
vt 0.407257 0.053824
vt 0.600450 0.349817
vt 0.581099 0.373283
vt 0.709548 0.600407
vt 0.482144 0.799259
vt 0.504746 0.841783
vt 0.853382 0.400747
vt 0.839107 0.373889
vt 0.845323 0.910360
vt 0.882621 0.879897
vt 0.710265 0.304632
vt 0.679990 0.307542
vt 0.482586 0.611241
vt 0.468498 0.657291
vt 0.557659 0.489695
vt 0.564607 0.509211
vt 0.660832 0.946607
vt 0.708746 0.951440
vt 0.740527 0.307684
vt 0.954980 0.706360
vt 0.950373 0.658423
vt 0.853961 0.517168
vt 0.862001 0.490410
vt 0.566698 0.400073
vt 0.535209 0.879081
vt 0.819868 0.350333
vt 0.913259 0.842743
vt 0.650863 0.316303
vt 0.463665 0.705206
vt 0.865053 0.460149
vt 0.756682 0.946833
vt 0.936502 0.612307
vt 0.557801 0.429158
vt 0.572363 0.909719
vt 0.796402 0.330982
vt 0.936060 0.800325
vt 0.624006 0.330578
vt 0.468273 0.753142
vt 0.862143 0.429873
vt 0.802799 0.932962
vt 0.913900 0.569782
vt 0.505387 0.568823
vt 0.554749 0.459420
vt 0.614781 0.932520
vt 0.769612 0.316582
vt 0.950148 0.754274
vt 0.036147 0.880695
vt 0.063273 0.911482
vt 0.061245 0.972550
vt 0.083700 0.921497
vt 0.098353 0.886354
vt 0.081099 0.870707
vn 0.7111 0.0000 -0.7031
vn 0.8819 0.0000 -0.4714
vn 0.9569 0.0000 -0.2903
vn 0.9952 0.0000 -0.0980
vn 0.9952 0.0000 0.0980
vn 0.9569 0.0000 0.2903
vn 0.8819 0.0000 0.4714
vn 0.7730 0.0000 0.6344
vn 0.6344 0.0000 0.7730
vn 0.4714 0.0000 0.8819
vn 0.2903 0.0000 0.9569
vn 0.0980 0.0000 0.9952
vn -0.0980 0.0000 0.9952
vn -0.2903 0.0000 0.9569
vn -0.4714 0.0000 0.8819
vn -0.6344 0.0000 0.7730
vn -0.7730 0.0000 0.6344
vn -0.8819 0.0000 0.4714
vn -0.9569 0.0000 0.2903
vn -0.9952 0.0000 0.0980
vn -0.9952 0.0000 -0.0980
vn -0.9569 0.0000 -0.2903
vn -0.8819 0.0000 -0.4714
vn -0.6579 0.0000 -0.7531
vn 0.0980 0.0000 -0.9952
vn 0.2903 0.0000 -0.9569
vn 0.4714 0.0000 -0.8819
vn 0.6344 0.0000 -0.7730
vn 0.7730 0.0000 -0.6344
vn 0.9413 0.0000 0.3376
vn -0.9584 0.0000 0.2855
vn -0.7730 0.0000 -0.6344
vn -0.6344 0.0000 -0.7730
vn -0.4714 0.0000 -0.8819
vn -0.2903 0.0000 -0.9569
vn -0.0980 0.0000 -0.9952
vn -0.0000 1.0000 0.0000
vn 0.0000 -1.0000 -0.0000
g Cylinder.001_Cylinder.001_None
s 1
f 2/1/1 4/2/1 1/3/1
f 3/4/2 6/5/2 4/2/2
f 5/6/3 8/7/3 6/5/3
f 7/8/4 10/9/4 8/7/4
f 9/10/5 12/11/5 10/9/5
f 11/12/6 14/13/6 12/11/6
f 13/14/7 16/15/7 14/13/7
f 15/16/8 18/17/8 16/15/8
f 17/18/9 20/19/9 18/20/9
f 19/21/10 22/22/10 20/19/10
f 21/23/11 24/24/11 22/22/11
f 23/25/12 26/26/12 24/24/12
f 25/27/13 28/28/13 26/26/13
f 27/29/14 30/30/14 28/28/14
f 29/31/15 32/32/15 30/30/15
f 31/33/16 34/34/16 32/32/16
f 33/35/17 36/36/17 34/37/17
f 35/38/18 38/39/18 36/36/18
f 37/40/19 40/41/19 38/39/19
f 39/42/20 42/43/20 40/41/20
f 41/44/21 44/45/21 42/43/21
f 43/46/22 46/47/22 44/45/22
f 45/48/23 48/49/23 46/47/23
f 47/50/24 50/51/24 48/52/24
f 52/53/25 54/54/25 51/55/25
f 53/56/26 56/57/26 54/54/26
f 55/58/27 58/59/27 56/57/27
f 57/60/28 60/61/28 58/59/28
f 59/62/29 62/63/29 60/64/29
f 61/65/2 64/66/2 62/63/2
f 63/67/3 66/68/3 64/66/3
f 65/69/4 68/70/4 66/68/4
f 67/71/5 70/72/5 68/70/5
f 69/73/30 1/3/30 70/72/30
f 49/74/31 72/75/31 50/76/31
f 71/77/20 74/78/20 72/75/20
f 73/79/21 76/80/21 74/78/21
f 75/81/22 78/82/22 76/80/22
f 77/83/23 80/84/23 78/82/23
f 79/85/32 82/86/32 80/84/32
f 81/87/33 84/88/33 82/89/33
f 83/90/34 86/91/34 84/88/34
f 85/92/35 88/93/35 86/91/35
f 87/94/36 51/55/36 88/93/36
f 87/95/37 85/96/37 89/97/37
f 41/98/37 39/99/37 89/97/37
f 61/100/37 59/101/37 89/97/37
f 15/102/37 13/103/37 89/97/37
f 79/104/37 77/105/37 89/97/37
f 33/106/37 31/107/37 89/97/37
f 53/108/37 52/109/37 89/97/37
f 7/110/37 5/111/37 89/97/37
f 25/112/37 23/113/37 89/97/37
f 52/109/37 87/95/37 89/97/37
f 43/114/37 41/98/37 89/97/37
f 63/115/37 61/100/37 89/97/37
f 17/116/37 15/102/37 89/97/37
f 81/117/37 79/104/37 89/97/37
f 35/118/37 33/106/37 89/97/37
f 55/119/37 53/108/37 89/97/37
f 9/120/37 7/110/37 89/97/37
f 73/121/37 71/122/37 89/97/37
f 27/123/37 25/112/37 89/97/37
f 45/124/37 43/114/37 89/97/37
f 71/122/37 49/125/37 89/97/37
f 2/126/37 69/127/37 89/97/37
f 65/128/37 63/115/37 89/97/37
f 19/129/37 17/116/37 89/97/37
f 83/130/37 81/117/37 89/97/37
f 37/131/37 35/118/37 89/97/37
f 57/132/37 55/119/37 89/97/37
f 11/133/37 9/120/37 89/97/37
f 75/134/37 73/121/37 89/97/37
f 29/135/37 27/123/37 89/97/37
f 47/136/37 45/124/37 89/97/37
f 3/137/37 2/126/37 89/97/37
f 67/138/37 65/128/37 89/97/37
f 21/139/37 19/129/37 89/97/37
f 85/96/37 83/130/37 89/97/37
f 39/99/37 37/131/37 89/97/37
f 59/101/37 57/132/37 89/97/37
f 13/103/37 11/133/37 89/97/37
f 77/105/37 75/134/37 89/97/37
f 31/107/37 29/135/37 89/97/37
f 49/125/37 47/136/37 89/97/37
f 5/111/37 3/137/37 89/97/37
f 69/127/37 67/138/37 89/97/37
f 23/113/37 21/139/37 89/97/37
f 60/140/38 62/141/38 90/142/38
f 14/143/38 16/144/38 90/142/38
f 78/145/38 80/146/38 90/142/38
f 32/147/38 34/148/38 90/142/38
f 51/149/38 54/150/38 90/142/38
f 6/151/38 8/152/38 90/142/38
f 70/153/38 1/154/38 90/142/38
f 24/155/38 26/156/38 90/142/38
f 88/157/38 51/149/38 90/142/38
f 42/158/38 44/159/38 90/142/38
f 50/160/38 72/161/38 90/142/38
f 62/141/38 64/162/38 90/142/38
f 16/144/38 18/163/38 90/142/38
f 80/146/38 82/164/38 90/142/38
f 34/148/38 36/165/38 90/142/38
f 54/150/38 56/166/38 90/142/38
f 8/152/38 10/167/38 90/142/38
f 72/161/38 74/168/38 90/142/38
f 26/156/38 28/169/38 90/142/38
f 44/159/38 46/170/38 90/142/38
f 64/162/38 66/171/38 90/142/38
f 18/163/38 20/172/38 90/142/38
f 82/164/38 84/173/38 90/142/38
f 36/165/38 38/174/38 90/142/38
f 56/166/38 58/175/38 90/142/38
f 10/167/38 12/176/38 90/142/38
f 74/168/38 76/177/38 90/142/38
f 28/169/38 30/178/38 90/142/38
f 46/170/38 48/179/38 90/142/38
f 1/154/38 4/180/38 90/142/38
f 66/171/38 68/181/38 90/142/38
f 20/172/38 22/182/38 90/142/38
f 84/173/38 86/183/38 90/142/38
f 38/174/38 40/184/38 90/142/38
f 58/175/38 60/140/38 90/142/38
f 12/176/38 14/143/38 90/142/38
f 76/177/38 78/145/38 90/142/38
f 30/178/38 32/147/38 90/142/38
f 48/179/38 50/160/38 90/142/38
f 4/180/38 6/151/38 90/142/38
f 68/181/38 70/153/38 90/142/38
f 22/182/38 24/155/38 90/142/38
f 86/183/38 88/157/38 90/142/38
f 40/184/38 42/158/38 90/142/38
f 2/1/1 3/4/1 4/2/1
f 3/4/2 5/6/2 6/5/2
f 5/6/3 7/8/3 8/7/3
f 7/8/4 9/10/4 10/9/4
f 9/10/5 11/12/5 12/11/5
f 11/12/6 13/14/6 14/13/6
f 13/14/7 15/16/7 16/15/7
f 15/16/8 17/185/8 18/17/8
f 17/18/9 19/21/9 20/19/9
f 19/21/10 21/23/10 22/22/10
f 21/23/11 23/25/11 24/24/11
f 23/25/12 25/27/12 26/26/12
f 25/27/13 27/29/13 28/28/13
f 27/29/14 29/31/14 30/30/14
f 29/31/15 31/33/15 32/32/15
f 31/33/16 33/186/16 34/34/16
f 33/35/17 35/38/17 36/36/17
f 35/38/18 37/40/18 38/39/18
f 37/40/19 39/42/19 40/41/19
f 39/42/20 41/44/20 42/43/20
f 41/44/21 43/46/21 44/45/21
f 43/46/22 45/48/22 46/47/22
f 45/48/23 47/187/23 48/49/23
f 47/50/24 49/188/24 50/51/24
f 52/53/25 53/56/25 54/54/25
f 53/56/26 55/58/26 56/57/26
f 55/58/27 57/60/27 58/59/27
f 57/60/28 59/189/28 60/61/28
f 59/62/29 61/65/29 62/63/29
f 61/65/2 63/67/2 64/66/2
f 63/67/3 65/69/3 66/68/3
f 65/69/4 67/71/4 68/70/4
f 67/71/5 69/73/5 70/72/5
f 69/73/30 2/1/30 1/3/30
f 49/74/31 71/77/31 72/75/31
f 71/77/20 73/79/20 74/78/20
f 73/79/21 75/81/21 76/80/21
f 75/81/22 77/83/22 78/82/22
f 77/83/23 79/85/23 80/84/23
f 79/85/32 81/190/32 82/86/32
f 81/87/33 83/90/33 84/88/33
f 83/90/34 85/92/34 86/91/34
f 85/92/35 87/94/35 88/93/35
f 87/94/36 52/53/36 51/55/36
