# OBJ written from C:\Users\cameron\Documents\3d\X-Wing\eta2\eta-2_export\eta-wing_upperleft.obj
# Units	meters

o wing1
v 2.136 -0.444 -0.941
v 2.136 -0.444 -0.136
v 2.09642 -0.277419 -0.849
v 2.11769 -0.366927 -0.941
v 2.11769 -0.366927 -0.136
v 2.09642 -0.277419 -0.228
v 2.107 -0.443413 -0.941
v 2.107 -0.443413 -0.136
v 2.09614 -0.370576 -0.941
v 2.08258 -0.279581 -0.849
v 2.08258 -0.279581 -0.228
v 2.09614 -0.370576 -0.136
v 2.05356 -0.133894 0.224124
v 2.12441 -0.42412 0.0304535
v 2.08747 -0.433593 0.0301261
v 1.80025 0.768336 -0.806531
v 1.8272 0.774877 -0.806535
v 1.82834 0.775155 -0.277466
v 2.08754 -0.433658 -1.11408
v 2.12472 -0.424521 -1.11509
v 2.05346 -0.133968 -1.30947
v 2.01666 -0.14293 -1.30808
v 1.80015 0.768312 -0.277463
v 2.01607 -0.143074 0.224087
vn 0.972913 0.231174 0
vn 0 0 1
vn 0 0 -1
vn -0.154432 0.988003 0
vn -0.109202 0.698633 -0.707098
vn -0.109367 0.699693 0.706023
vn -0.989074 -0.14742 0
vn -0.0202431 -0.999795 0
vn 0.103713 -0.534892 -0.838531
vn -0.112167 0.458591 0.88154
vn 0.128354 -0.52863 0.839092
vn 0.243498 -0.969901 0.000237992
vn -0.23584 0.971792 -8.59989e-007
vn -0.127334 0.455262 -0.881205
vn 0.971362 0.237606 5.19863e-005
vn 0.970656 0.240468 -0.00114805
vn -0.973014 -0.230745 -0.000298902
vn -0.97135 -0.237653 -0.000223793
vt 0.267957 0.201882
vt 0.258951 0.201584
vt 0.248653 0.191366
vt 0.248437 0.120893
vt 0.25866 0.110493
vt 0.267721 0.110336
vt 0.257318 0.108527
vt 0.26655 0.106828
vt 0.266752 0.205346
vt 0.257614 0.203554
vt 0.247131 0.191561
vt 0.246911 0.120707
vt 0.283901 0.0140895
vt 0.291931 0.0141055
vt 0.301944 0.0241577
vt 0.30181 0.0918767
vt 0.291758 0.101889
vt 0.283727 0.101873
vt 0.267375 0.10075
vt 0.267375 0.01525
vt 0.281625 0.01525
vt 0.281625 0.10075
vt 0.0511243 0.806511
vt 0.0479562 0.806432
vt 0.0491517 0.776954
vt 0.0522914 0.77701
vt 0.0484959 0.557311
vt 0.051685 0.557295
vt 0.0518532 0.645126
vt 0.049454 0.645136
vt 0.0483336 0.527887
vt 0.0514774 0.52791
vt 0.0482213 0.433619
vt 0.0513752 0.433533
vt 0.0518199 0.688895
vt 0.0495229 0.688896
vt 0.0922818 0.40101
vt 0.259615 0.400947
vt 0.288008 0.446887
vt 0.0639919 0.446899
vt 0.137261 0.590631
vt 0.214543 0.590587
vt 0.214677 0.787049
vt 0.137323 0.787053
vt 0.0639919 0.64297
vt 0.288008 0.642947
vt 0.092356 0.597002
vt 0.259649 0.597013
mtllib eta-wing_upperleft.mtl
usemtl etatex
g Default
f 1/1/1 4/2/1 3/3/1 6/4/1 5/5/1 2/6/1
f 2/6/2 5/5/2 12/7/2 8/8/2
f 7/9/3 9/10/3 4/2/3 1/1/3
f 3/3/4 10/11/4 11/12/4 6/4/4
f 10/11/5 3/3/5 4/2/5 9/10/5
f 6/4/6 11/12/6 12/7/6 5/5/6
f 8/13/7 12/14/7 11/15/7 10/16/7 9/17/7 7/18/7
f 8/19/8 7/20/8 1/21/8 2/22/8
f 20/23/9 19/24/9 22/25/9 21/26/9
f 24/27/10 13/28/10 18/29/10 23/30/10
f 24/27/11 15/31/11 14/32/11 13/28/11
f 14/32/12 15/31/12 19/33/12 20/34/12
f 17/35/13 16/36/13 23/30/13 18/29/13
f 21/26/14 22/25/14 16/36/14 17/35/14
f 14/37/15 20/38/15 21/39/15 13/40/15
f 18/41/16 13/40/16 21/39/16 17/42/16
f 23/43/17 16/44/17 22/45/17 24/46/17
f 24/46/18 22/45/18 19/47/18 15/48/18
